<svg xmlns="http://www.w3.org/2000/svg" width="191.3" height="187.1" viewBox="0 0 1913 1871">
  <defs>
    <style>
      .cls-1 {
        fill: #fff;
        fill-rule: evenodd;
      }
    </style>
  </defs>
  <path id="Color_Fill_1" data-name="Color Fill 1" class="cls-1" d="M458,658V487l6-5v-1h2l20-21,3-1,5-6c5.718-5.715,11.346-11.188,18-16l5-6c5.718-5.715,11.346-11.188,18-16l21-22c6.653-4.814,12.282-10.285,18-16l5-6c6.653-4.814,12.282-10.285,18-16l5-6,3-1,20-21h2l5-6c5.718-5.715,11.346-11.188,18-16l5-6c6.038-6.034,11.98-11.924,19-17l11-12,8-7,2-3h2l5-6c5.718-5.715,11.346-11.188,18-16l11-12,8-7,2-3h2l5-6c5.718-5.715,11.346-11.188,18-16l17-18,4-3v-1h2l5-6c5.718-5.715,11.346-11.188,18-16l5-6c5.718-5.715,11.346-11.188,18-16l13-14,6-5,2-3h2l19-20,3-2V83h2l21-22c6.654-4.812,12.282-10.285,18-16l5-6h2V38l4-3,17-18h2l1-2,6-5c3.506-3.506,5.93-9.165,12-10q121.995,117.988,244,236H903l-5,6-3,1-17,18h-2v1l-4,3-14,15h-2l-2,3-6,5-10,11h-2l-18,19h-2l-18,19h-2l-13,14-4,3q-0.5,1-1,2h-2l-18,19h-2l-18,19h-2l-18,19h-2l-18,19h-2v1l-3,2-15,16h-2l-18,19h-2l-2,3-6,5-10,11h-2l-17,18h-2l-18,19h-2l-18,19-3,1-17,18h-2l-2,3-6,5-10,11h-2l-18,19h-2l-18,19h-2v1l-4,3-14,15h-2l-2,3-6,5C465.7,651.3,463.073,656.612,458,658ZM1630,285V608h-2v-2l-6-5v-2q-3.495-3-7-6v-2q-3.495-3-7-6v-2q-3.495-3-7-6v-2q-3.495-3-7-6v-2q-3.495-3-7-6v-2l-6-5v-2l-6-5c-0.33-1-.67-2-1-3q-3.495-3-7-6v-2q-3.495-3-7-6v-2q-3.495-3-7-6v-2h-1c-0.67-1-1.33-2-2-3l-3-2v-2l-3-2-3-4h-1v-2q-3.495-3-7-6v-2q-3.495-3-7-6v-2q-3.495-3-7-6v-2l-6-5v-2q-3.495-3-7-6v-2q-3.495-3-7-6v-2l-3-2-3-4h-1v-2q-3.495-3-7-6v-2l-6-5v-2q-3.495-3-7-6v-2q-3.495-3-7-6v-2q-3.495-3-7-6v-2q-3.495-3-7-6v-2q-3.495-3-7-6v-2l-3-2v-1h-19c-1.72,1.476-5.8,1-9,1h-25c-7.55,2.116-19.75.888-29,1h-5v1h-10c-8.28,0-18.3-.114-25,1-10.6,1.762-23.88-1.555-33,1h-34v1h-34c-7.6,2.133-19.71.782-29,1h-4v1h-10c-8.28,0-18.3-.111-25,1-10.61,1.758-23.88-1.557-33,1h-34v1h-34v1h-34v1H981c-5.807,1.631-15.562,1-23,1l-26,1H914v1H880v1H846c-7.243,2.032-19.065.943-28,1h-6v1H782v-1h1L910,269h33c2.082,1.8,8.272,1,12,1h31c10.884,3.045,27.31.428,40,1h3v1h43v1h43c8.92,2.5,23.31.991,34,1h9v1h44v1h3c12.69,0.57,29.12-2.048,40,1h43c10.88,3.053,27.31.428,40,1h3v1h43v1h44c8.06,2.262,21.2,1,31,1l52,1C1543.19,283.9,1586.38,284.91,1630,285ZM263,285H609v1L423,466v634c-3.271-.86-4.735-3.1-7-5v-1h-2l-5-6c-1-.33-2-0.67-3-1q-3-3.495-6-7h-2q-3-3.495-6-7h-2q-3-3.495-6-7h-2q-3.5-4.005-7-8h-2v-1l-4-3-2-3c-18.166-13.16-32.818-29.85-51-43l-2-3-4-3v-1h-2l-7-8h-2l-6-7h-2l-6-7h-2l-6-7h-2l-6-7h-2l-3-4h-1V285Zm1405,909V871c-2.31-1.344-3.21-3.216-5-5q-6.015-6-12-12c-1.67-1.333-3.33-2.667-5-4q-15.495-16-31-32-13.005-12.5-26-25v-2q-7.005-6.5-14-13-13.5-14-27-28-19.5-19-39-38v-2q-36.495-36-73-72c-1.67-2-3.33-4-5-6-0.67-.333-1.33-0.667-2-1v-2q-22.005-21.5-44-43l-85-87q-16.005-15.5-32-31a139.8,139.8,0,0,0-15-17q-8.505-8.5-17-17c-2.38-2.381-5.23-3.972-7-7h196q7.995,9,16,18c1.33,1,2.67,2,4,3v2q5.505,5,11,10v2q5.505,5,11,10v2q5.505,5,11,10v2l9,8c0.67,1,1.33,2,2,3h1v2q5.505,5,11,10v2c1.67,1.333,3.33,2.667,5,4,1.33,1.667,2.67,3.333,4,5,0.67,0.333,1.33.667,2,1,0.33,1,.67,2,1,3q4.995,4.5,10,9v2q5.505,5,11,10v2q5.505,5,11,10v2q5.505,5,11,10v2l9,8v1c0.67,0.333,1.33.667,2,1v2q5.505,5,11,10v2l9,8v1c0.67,0.333,1.33.667,2,1v2q5.505,5,11,10v2l9,8v1c0.67,0.333,1.33.667,2,1v2q5.505,5,11,10v2q5.505,5,11,10v2l9,8c0.67,1,1.33,2,2,3h1v2q5.505,5,11,10v2q5.505,5,11,10v2l9,8v1c0.67,0.333,1.33.667,2,1v2q5.505,5,11,10v2q5.505,5,11,10v2q5.505,5,11,10v2l9,8v1c0.67,0.333,1.33.667,2,1v2q5.505,5,11,10v2q5.505,5,11,10v2q5.505,5,11,10v2q5.505,5,11,10v2l9,8v1c0.67,0.333,1.33.667,2,1v2l12,11v2c1.67,1.333,3.33,2.667,5,4,1.33,1.667,2.67,3.333,4,5,0.67,0.333,1.33.667,2,1,0.33,1,.67,2,1,3q4.995,4.5,10,9v2q5.505,5,11,10v2q5.505,5,11,10v2l9,8v1c0.67,0.333,1.33.667,2,1v2q5.505,5,11,10v2l9,8v1c0.67,0.333,1.33.667,2,1v2q5.505,5,11,10v2q5.505,5,11,10v2q5.505,5,11,10v2h1c0.67,1,1.33,2,2,3,3.93,3.968,10.07,7.18,11,14-7.48,4.318-13.03,12.034-19,18l-21,19q-4.5,5-9,10c-6.65,4.81-12.28,10.28-18,16-1.67,2-3.33,4-5,6a139.955,139.955,0,0,0-17,15c-1.67,2-3.33,4-5,6a139.955,139.955,0,0,0-17,15c-1.67,2-3.33,4-5,6-1,.33-2,0.67-3,1q-10.005,10.5-20,21h-2c-1.67,2-3.33,4-5,6a139.955,139.955,0,0,1-17,15c-1.67,2-3.33,4-5,6a139.955,139.955,0,0,1-17,15q-5.505,6-11,12-4.005,3.495-8,7c-0.67,1-1.33,2-2,3h-2c-1.67,2-3.33,4-5,6a139.955,139.955,0,0,1-17,15c-0.33.67-.67,1.33-1,2q-4.995,4.5-10,9c-0.67,1-1.33,2-2,3h-2ZM941,513h48v1h13v1h10v1h8v1h8v1h6v1h6v1l10,1v1h5v1h4v1h4v1h4v1l8,1c8.33,2.863,18.06,5.827,26,9l6,1v1h2v1l6,1v1c1.67,0.333,3.33.667,5,1v1h2v1h3v1l4,1v1h3v1l4,1v1c1.67,0.333,3.33.667,5,1v1l6,2v1h2v1h2v1h2v1h2v1h2v1h2v1h2v1h2c0.33,0.667.67,1.333,1,2l6,2v1h2c0.33,0.667.67,1.333,1,2l4,1c0.33,0.667.67,1.333,1,2l4,1c0.33,0.667.67,1.333,1,2l4,1c0.33,0.667.67,1.333,1,2h2c0.33,0.667.67,1.333,1,2h2v1l3,1c0.33,0.667.67,1.333,1,2h2v1l3,1c0.33,0.667.67,1.333,1,2h2c0.67,1,1.33,2,2,3h2c0.33,0.667.67,1.333,1,2h2c0.67,1,1.33,2,2,3h2c0.67,1,1.33,2,2,3h2l3,4h2l3,4h2c1.33,1.667,2.67,3.333,4,5h2l6,7h2l12,13c6.97,6.977,14.11,12.847,20,21l6,5v2l6,5v2c1.33,1,2.67,2,4,3v2l3,2v2c1.33,1,2.67,2,4,3v2c0.67,0.333,1.33.667,2,1v2l3,2v2c0.67,0.333,1.33.667,2,1v2l3,2v2c0.67,0.333,1.33.667,2,1v2c0.67,0.333,1.33.667,2,1v2c0.67,0.333,1.33.667,2,1v2c0.67,0.333,1.33.667,2,1,0.33,1.333.67,2.667,1,4h1c0.33,1,.67,2,1,3,0.67,0.333,1.33.667,2,1,0.33,1.333.67,2.667,1,4,0.67,0.333,1.33.667,2,1,0.67,2,1.33,4,2,6,0.67,0.333,1.33.667,2,1v2h1v2h1v2h1v2h1v2c0.67,0.333,1.33.667,2,1,0.67,2,1.33,4,2,6h1v2h1c0.67,2,1.33,4,2,6h1v3h1v2h1c0.67,2,1.33,4,2,6h1c0.33,1.667.67,3.333,1,5h1v2h1v3h1v2h1q7.5,22,15,44c0.33,2.666.67,5.334,1,8h1v4h1v4h1v4h1c0.33,3,.67,6,1,9h1l6,39v11h1v17h1v33h-1v18h-1v10h-1v9h-1v8c-2.44,8.268-3.44,19.06-6,27v5h-1v4h-1v4h-1v4h-1v4h-1v4h-1v3h-1v4h-1v3h-1v3h-1v3h-1v3h-1v3h-1v3h-1c-0.33,2-.67,4-1,6h-1v2h-1c-0.33,2-.67,4-1,6h-1v2h-1v3h-1v2h-1v3h-1c-0.33,1.33-.67,2.67-1,4h-1v3h-1c-0.67,2-1.33,4-2,6h-1v2h-1c-0.33,1.33-.67,2.67-1,4h-1v3h-1c-0.33,1.33-.67,2.67-1,4h-1v2c-0.67.33-1.33,0.67-2,1v2h-1v2h-1v2h-1v2h-1c-0.33,1.33-.67,2.67-1,4-0.67.33-1.33,0.67-2,1-0.67,2-1.33,4-2,6-0.67.33-1.33,0.67-2,1-0.33,1.33-.67,2.67-1,4-0.67.33-1.33,0.67-2,1v2h-1v2h-1c-0.33,1-.67,2-1,3-0.67.33-1.33,0.67-2,1-0.33,1.33-.67,2.67-1,4h-1c-0.33,1-.67,2-1,3-0.67.33-1.33,0.67-2,1v2c-0.67.33-1.33,0.67-2,1v2c-1,.67-2,1.33-3,2v2c-0.67.33-1.33,0.67-2,1v2c-1,.67-2,1.33-3,2v2c-1,.67-2,1.33-3,2v2c-1,.67-2,1.33-3,2v2c-1.33,1-2.67,2-4,3v2c-1.33,1-2.67,2-4,3v2c-1.67,1.33-3.33,2.67-5,4v2q-3.495,3-7,6v2q-8.505,7.995-17,16-6.495,7.005-13,14h-2q-3,3.495-6,7h-2c-0.33.67-.67,1.33-1,2h-1c-0.67,1-1.33,2-2,3h-2c-1.33,1.67-2.67,3.33-4,5h-2c-0.67,1-1.33,2-2,3h-2c-0.67,1-1.33,2-2,3h-2c-0.67,1-1.33,2-2,3h-2c-0.67,1-1.33,2-2,3h-2c-0.33.67-.67,1.33-1,2h-2c-0.67,1-1.33,2-2,3h-2c-0.33.67-.67,1.33-1,2h-2c-0.33.67-.67,1.33-1,2h-2c-0.33.67-.67,1.33-1,2h-2c-0.33.67-.67,1.33-1,2-1.33.33-2.67,0.67-4,1v1c-1,.33-2,0.67-3,1-0.33.67-.67,1.33-1,2h-2v1h-2c-0.33.67-.67,1.33-1,2-2,.67-4,1.33-6,2-0.33.67-.67,1.33-1,2h-2v1h-2v1h-2v1h-2v1h-2c-0.33.67-.67,1.33-1,2-2,.67-4,1.33-6,2v1h-2v1h-2v1c-2,.67-4,1.33-6,2v1h-3v1h-2v1c-2,.67-4,1.33-6,2v1h-3v1h-2v1h-3v1c-1.33.33-2.67,0.67-4,1v1c-2,.33-4,0.67-6,1v1h-2v1c-2,.33-4,0.67-6,1v1h-2v1h-3v1h-3v1h-3v1h-3v1h-4v1h-3v1h-3v1c-2.33.33-4.67,0.67-7,1v1h-4v1q-6,1.005-12,2v1h-5v1h-5v1h-5v1h-5c-5.47,1.67-13.39,2.38-19,4h-9v1h-10v1H986v1H969c-8.312,0-19.361.88-26-1H928v-1q-9-.495-18-1-22-4.005-44-8l-49-15v-1h-2v-1h-3v-1c-1.667-.33-3.333-0.67-5-1v-1h-2v-1h-3v-1c-1.333-.33-2.667-0.67-4-1v-1h-3v-1c-2-.67-4-1.33-6-2v-1h-2v-1c-1.333-.33-2.667-0.67-4-1v-1h-3v-1c-1.333-.33-2.667-0.67-4-1-0.333-.67-0.667-1.33-1-2h-2v-1h-2v-1h-2v-1h-2v-1h-2v-1h-2v-1h-2c-0.333-.67-0.667-1.33-1-2-2-.67-4-1.33-6-2-0.333-.67-0.667-1.33-1-2h-2v-1h-2c-0.333-.67-0.667-1.33-1-2-1.333-.33-2.667-0.67-4-1-0.333-.67-0.667-1.33-1-2h-2c-0.333-.67-0.667-1.33-1-2h-2c-0.333-.67-0.667-1.33-1-2h-2v-1c-1-.33-2-0.67-3-1-0.333-.67-0.667-1.33-1-2h-2v-1c-1-.33-2-0.67-3-1-0.333-.67-0.667-1.33-1-2h-2l-2-3h-2c-0.333-.67-0.667-1.33-1-2h-2l-2-3h-2c-1-1.33-2-2.67-3-4h-2c-1-1.33-2-2.67-3-4h-2c-1-1.33-2-2.67-3-4h-2l-5-6h-2q-3.5-4.005-7-8h-2l-14-15-10-9v-2q-4-3.495-8-7v-2c-2-1.67-4-3.33-6-5v-2l-4-3v-2l-4-3v-2c-1-.67-2-1.33-3-2v-2c-1-.67-2-1.33-3-2v-2c-1-.67-2-1.33-3-2v-2c-0.667-.33-1.333-0.67-2-1v-2c-1-.67-2-1.33-3-2v-2c-0.667-.33-1.333-0.67-2-1v-2c-0.667-.33-1.333-0.67-2-1v-2c-0.667-.33-1.333-0.67-2-1v-2c-0.667-.33-1.333-0.67-2-1-0.333-1.33-.667-2.67-1-4h-1q-0.5-1.5-1-3c-0.667-.33-1.333-0.67-2-1-0.333-1.33-.667-2.67-1-4-0.667-.33-1.333-0.67-2-1-0.333-1.33-.667-2.67-1-4-0.667-.33-1.333-0.67-2-1v-2h-1v-2h-1v-2h-1v-2c-0.667-.33-1.333-0.67-2-1v-2h-1v-2h-1v-2h-1v-2h-1v-2h-1v-2h-1v-2h-1v-2h-1v-2h-1q-1-3-2-6h-1v-3h-1v-2h-1c-0.333-1.33-.667-2.67-1-4h-1v-3h-1c-0.333-1.33-.667-2.67-1-4h-1v-3h-1v-2h-1q-0.5-3-1-6h-1v-2h-1q-1-4.5-2-9h-1v-3h-1v-2h-1q-1.5-6.495-3-13h-1q-2-9.495-4-19h-1v-4h-1v-4h-1v-5h-1v-5h-1v-5h-1v-5h-1v-7h-1v-6h-1v-8h-1q-0.5-10.5-1-21c-1.794-6.47.825-17.356-1-24h-1V924h1V900h1V888h1v-9h1v-8h1v-7h1v-6h1v-5h1v-5h1v-5h1v-5l13-46h1v-2h1q0.5-3,1-6h1v-2h1q0.5-3,1-6h1v-2h1v-3h1q0.5-2,1-4h1v-3h1q0.5-2,1-4h1v-3h1v-2h1q0.5-2,1-4h1v-2h1v-2h1v-2h1v-2h1v-2h1v-2h1v-2h1v-2h1v-2h1v-2l2-1v-2h1v-2h1v-2h1v-2l2-1v-2h1v-2l2-1q0.5-2,1-4l2-1v-2h1v-2l2-1v-2l2-1v-2l2-1v-2h1q0.5-1.5,1-3l2-1v-2l2-1v-2l3-2v-2l3-2v-2l3-2v-2l3-2v-2l2-1v-1l2-1v-2l4-3v-2l5-4v-2l8-7v-2l9-8,17-18h2l7-8h2v-1l3-2,2-3h2l3-4h2l3-4h2l2-3h2l2-3h2l2-3h2v-1l3-1q0.5-1,1-2h2l2-3h2q0.5-1,1-2l3-1v-1l4-1v-1l3-1q0.5-1,1-2l4-1q0.5-1,1-2l4-1q0.5-1,1-2l4-1q0.5-1,1-2h2v-1h2v-1h2v-1h2v-1h2q0.5-1,1-2l6-2v-1h2v-1l6-2v-1h3v-1h2v-1l6-2v-1h3v-1l4-1v-1h3v-1l4-1v-1l6-1v-1h2v-1l6-1v-1h2v-1l45-13h5v-1h4v-1h5v-1h6v-1h5v-1h7v-1h7v-1h8v-1h10v-1C931.383,512.749,938.11,515.564,941,513ZM672,1423H482q-177.483-182.985-355-366-7.5-7.005-15-14v-2c-2-1.67-4-3.33-6-5q-6-6.495-12-13-8.5-8-17-16v-2c-0.667-.33-1.333-0.67-2-1-1-1.33-2-2.67-3-4L42,971v-2l-3-2-5-6c-9.211-9.211-19.259-17.29-27-28H6c-2.411-2.868-5.363-4.356-6-9,6.313-3.41,10.074-9.225,15-14h1l1-2h2l13-14h2l13-14h2l14-15h2v-1l4-3,9-10h2l13-14h2l9-10,4-3v-1h2l14-15h2l13-14h2l13-14h2l9-10,4-3v-1h2l14-15h2l13-14h2l13-14h2q0.5-1,1-2h1c4.939-4.787,8.7-10.545,15-14V961l17,16v2l19,18v2q9,8.5,18,17v2l16,15,2,3h1v2q9,8.505,18,17v2l19,18v2l13,12c1,1.33,2,2.67,3,4,0.667,0.33,1.333.67,2,1v2l19,18v2q9,8.505,18,17v2l19,18v2l16,15v1c0.667,0.33,1.333.67,2,1v2l19,18v2q9,8.505,18,17v2l19,18v2q5.5,4.995,11,10l5,6c0.667,0.33,1.333.67,2,1v2l19,18v2q5.5,4.995,11,10l5,6c0.667,0.33,1.333.67,2,1v2l19,18v2q9,8.505,18,17v2l19,18v2q9,8.505,18,17v2l19,18q0.5,1.5,1,3,8.5,7.995,17,16v2h1c1,1.33,2,2.67,3,4C665.3,1415.31,670.61,1417.92,672,1423Zm958,157H1288c1.28-4.64,6.9-6.9,10-10q7.995-8.505,16-17h2c0.67-1,1.33-2,2-3,2-1.67,4-3.33,6-5q6.495-7.005,13-14h2c0.67-1,1.33-2,2-3q4.005-3.495,8-7,5.505-6,11-12h2q10.5-10.995,21-22h2c0.33-.67.67-1.33,1-2h1q9.495-10.005,19-20h2c0.67-1,1.33-2,2-3,2-1.67,4-3.33,6-5q6-6.495,12-13h2q5.505-6,11-12,4.005-3.495,8-7c0.67-1,1.33-2,2-3h2q6-6.495,12-13,3.495-3,7-6c0.67-1,1.33-2,2-3h2c0.67-1,1.33-2,2-3h1v-11c1.69-1.95,1-7.45,1-11v-30q0.495-57,1-114c2.99-10.7,1-30.2,1-43q0.495-38.49,1-77v-36c1.47-5.24,1-14.15,1-21V998c1.47-5.243,1-14.151,1-21V920c1.55-5.525,1-14.856,1-22V859q1.005-54.995,2-110h1q54,54.5,108,109l33,32v690Zm-189-403v201q-8.505,7.995-17,16c-1,1.33-2,2.67-3,4-7.38,5.34-13.64,11.65-20,18-1.67,2-3.33,4-5,6-7.02,5.08-12.96,10.97-19,17-1.67,2-3.33,4-5,6h-2c-0.33.67-.67,1.33-1,2-1.33,1-2.67,2-4,3q-9,9.495-18,19c-7.38,5.34-13.64,11.65-20,18-1.67,2-3.33,4-5,6h-2c-0.67,1-1.33,2-2,3q-4.005,3.495-8,7-6,6.495-12,13c-7.38,5.34-13.64,11.65-20,18-1.67,2-3.33,4-5,6-7.38,5.34-13.64,11.65-20,18-1.67,2-3.33,4-5,6-7.02,5.08-12.96,10.97-19,17-1.67,2-3.33,4-5,6-1,.33-2,0.67-3,1q-10.995,11.505-22,23h-2c-0.67,1-1.33,2-2,3q-3.495,3-7,6-6.495,7.005-13,14h-2q-6,6.495-12,13-4.005,3.495-8,7c-1,1.33-2,2.67-3,4h-2c-1.67,2-3.33,4-5,6-6.36,6.35-12.61,12.66-20,18q-9,9.495-18,19c-1.33,1-2.67,2-4,3v1h-2c-1.67,2-3.33,4-5,6-6.36,6.35-12.61,12.66-20,18-1.67,2-3.33,4-5,6-6.36,6.35-12.61,12.66-20,18q-10.995,11.505-22,23c-7.39,5.34-13.64,11.65-20,18-1.67,2-3.33,4-5,6-7.02,5.08-12.962,10.97-19,17l-5,6c-7.02,5.08-12.964,10.96-19,17q-3,3.495-6,7a139.729,139.729,0,0,0-17,15c-3.62,3.62-5.16,8.52-12,9-1.554-2.67-3.918-3.92-6-6l-12-12q-18.5-19.005-37-38h-2v-1l-4-3q-27.5-27.99-55-56c-12.536-9.06-22.192-21.19-33-32l-19-18-8-9h-2l-23-24q-12-11.505-24-23l-11-12h-2q-7.5-7.995-15-16H968v-1c4.765-1.27,6.944-5.94,10-9,2-1.67,4-3.33,6-5,0.333-.67.667-1.33,1-2h2l11-12q2-1.5,4-3v-1h2q7-7.5,14-15h2q7.5-7.995,15-16h2q3-3.495,6-7,7.995-7.005,16-14,4.995-5.505,10-11h2q7.5-7.995,15-16h2c0.33-.67.67-1.33,1-2,1.67-1.33,3.33-2.67,5-4q4.5-4.995,9-10h2q7.005-7.5,14-15c13.17-9.53,22.83-22.48,36-32q7.5-7.995,15-16h2q7.5-7.995,15-16h2q4.5-4.995,9-10c1.67-1.33,3.33-2.67,5-4,0.33-.67.67-1.33,1-2h2q7.005-7.5,14-15h2q7.005-7.5,14-15c1-.33,2-0.67,3-1q7.5-7.995,15-16h2q7.5-7.995,15-16h2q7.5-7.995,15-16h2q7.005-7.5,14-15c1-.33,2-0.67,3-1q7.005-7.5,14-15h2q7.5-7.995,15-16h2q3-3.495,6-7,7.995-7.005,16-14,4.995-5.505,10-11h2q7.5-7.995,15-16h2q7.5-7.995,15-16h2v-1c1-.67,2-1.33,3-2q5.505-6,11-12h2c0.33-.67.67-1.33,1-2,2-1.67,4-3.33,6-5C1434.07,1182.93,1436.23,1178.31,1441,1177ZM263,1580V1265h1q102.491,92.985,205,186h612v1c-4.48,2.61-7.43,7.43-11,11q-7.995,7.5-16,15-4.005,4.5-8,9c-1.67,1.33-3.33,2.67-5,4-0.33.67-.67,1.33-1,2h-2q-10.005,10.5-20,21-18.5,17.505-37,35-15,15.495-30,31H263Z"/>
</svg>
