<svg xmlns="http://www.w3.org/2000/svg" width="728" height="606" viewBox="0 0 728 606">
  <defs>
    <style>
      .cls-1 {
        fill: #2470ab;
        fill-rule: evenodd;
      }
    </style>
  </defs>
  <path id="Color_Fill_1" data-name="Color Fill 1" class="cls-1" d="M353,36c7.186-.04,12.517,1.092,17,4,5.969,3.872,31.31,28.918,34,35h-1c-10.32,6.286-33.725-4.353-44,2-9.009,3.219-21.993,20.993-29,28l-51,51c-7.454,7.454-18.689,14.766-24,24-1.754-.631-0.971-0.193-2-1-1.814-2.763-1.811-43.227,0-46,3.253-9.04,20.968-21.968,28-29,15.559-15.559,30.89-30.953,47-46,5.34-4.987,8.966-12.775,15-17C346.065,38.854,350.275,38.433,353,36ZM236,269h-5c-5.358-10.226-25.212-20.927-29-30V91h2c4.241-2.441,13.9,1.41,21,0,9.262-1.84,28.954.4,42-1v1h1v2l-32,31V269ZM512,92c0.028,21.932.781,46.267,0,65h-2c-6.829-7.472-27.293-30.991-39-31-5.28-3.275-44.222-1.43-51,0-8.1,1.709-20.184-2.359-30-1-13.534,1.873-38.579-.085-55,0l-1-3,31-30H512Zm-87,47c11.387,1.95,32.048,1.033,48,1,8.726,13.2,23.861,23.861,35,35,17.316,17.316,34.878,34.5,52,52l7,9a115.437,115.437,0,0,1,0,18c-2.057,1.666-1.425,2.768-3,5-3.335,4.726-31.408,32.226-36,34,0.96-14.791.152-32.016,0-48-9.54-6.273-16.987-16.987-25-25q-26-26-52-52C444.877,161.883,426.115,148.037,425,139Zm-77,15c12.518-.176,25.019-0.592,35,3,27,9.715,48.833,27.548,60,53,3.51,8,2.835,15.236,5,25,2.81,12.675.833,30.618-3,41-12.491,33.83-38.712,52.444-77,61-18.951,4.235-40.647-3.927-51-10-36.77-21.568-66.7-64.238-43-120,8.786-20.671,26.681-33.667,45-45C326.4,157.424,341.135,158.7,348,154ZM289,350c-15.224,1.736-28.738,1.033-46,1-6.6-9.895-17.647-17.647-26-26-14.763-14.763-28.618-30.9-44-45-11.612-10.643-26-17.605-26-40,2.425-2.69,2.838-6.993,5-10l32-31,3,1v45c8.8,5.838,14.636,15.636,22,23q27.5,27.5,55,55C271.335,330.336,287,338.218,289,350ZM479,219h3c6.409,9.6,25.918,22.055,30,31,2,4.387,1.033,13.761,0,18-1.608,6.6,1.32,13.594,1,19q-0.5,13-1,26c1.434,7.351-.3,14.961,0,26,0.459,17.125.064,37.906,0,59-16.013-.121-52.527-3.161-65,1v-3c12.052-7.934,21.222-21.425,32-31,0.19-14.63.963-29.373,1-44,0.02-7.915-1.676-15.853,0-23q-0.5-15-1-30C480.808,257.106,480.064,231.462,479,219ZM311,413h46c4.363-6.033,11.33-9.486,16-15,12.609-14.888,26.661-27.856,41-41,16.657-15.269,29.818-36.51,49-49v5s1.353,40.532,0,43c-3.416,7.323-13.282,13.518-19,19-14.548,13.948-27.636,28.764-43,42-2.909,2.506-4.27,7.25-7,10-2.32,2.337-5.416,3.921-8,6-6.313,5.079-10.425,14.315-18,18-4.091,1.99-15.874,1.8-20,0-9.412-4.116-20.614-19.611-28-27C316.515,420.513,312.191,418.883,311,413ZM202,331h3c1.779,4.65,26.6,30.065,31,32H381v1h1v2c-12.676,5.483-22.59,29.933-37,31-3.742-2.035-38.283.084-53,0-24.764-.141-62.829-0.437-88,0C198.184,380.743,201.905,351.013,202,331Z"/>
</svg>
