<svg xmlns="http://www.w3.org/2000/svg" width="3159" height="2630" viewBox="0 0 3159 2630">
  <defs>
    <style>
      .cls-1 {
        fill: #05365c;
        fill-rule: evenodd;
      }
    </style>
  </defs>
  <path id="Color_Fill_1" data-name="Color Fill 1" class="cls-1" d="M648,738c13.7-.129,34.83-2.409,45,2,5.636,2.443,16.053-.658,21,1v3c8.7-.064,17.67.449,25,1v3c10.669-.153,20.658.283,29,2v3h33c2.178,6.733,21.279,4.337,30,4,4.648,6.755,23.686,3.36,33,5v3c8.31-.1,18.24-0.349,25,1v3c9.915-.065,20.517.368,29,1v3l29,1v3a237.813,237.813,0,0,0,25,1v1h1v3h31c0.98,0.446,1.31,3.6,2,4,3.59,2.113,13.78-.085,17,1v3h4v12c-5.38,1.827-14.97,1.078-22,1-2.35,5.955-14.833,4.328-23,4-1.854,6-12.409,4.389-20,4-1.021.8-.274,0.355-2,1v3l-21,1v3c-1.88.115-19.508,0.161-21,1-0.419.235-1.726,3.326-4,4H897c-0.908.521-1.474,3.463-3,4H873c-0.372,2.076-.242,1.924-1,3-3.666,2.387-14.437,1.131-20,1q-0.5,5-1,10l-3,2v45c-0.721,3.186-3.267,7.186-4,9v43c-0.6,2.363-3.4,5.44-4,7v15q-0.5,19.5-1,39c-6.42,2.18-4.263,43.2-4,54-8.293,8.01-2.35,44.58-5,59h-3c0.112,17.27,2.014,38.52-1,54h-3c0.087,17.73.889,37.91-1,54h-3c0.217,9.2,2.329,27.44-2,33-4.186,2.71-16.8,1.13-23,1-5.745-5.16-17.823-4.22-29-4-2.605-5.33-7.96-6.53-9-13h-4v-4h-8c-1.012-3.68-.657-3.52-5-4v-4h-7v-1h-1v-3a33.779,33.779,0,0,1-8-1v-3c-2.333-.33-4.667-0.67-7-1-1.6-3.21-1.343-3.57-6-4v-4h-8v-4h-8v-1h-1v-3h-7v-1h-1v-3h-8v-4c-10.169-.07-6.178-2.98-11-5h-8c-1-.47-1.285-3.57-2-4-1.611-.98-6.856-0.59-8-1v-3c-9.062.24-5.139-1.57-9-4-4.744-2.99-6.292,2.46-8-4a33.779,33.779,0,0,1-8-1v-3c-9.009-.44-7.731-4.65-17-5v-4h-8v-4h-8c-0.333-1.33-.667-2.67-1-4-4.649-3.11-6.273,2.52-8-4h-4v-4c-10.295-.07-5.451-2.52-10-5-1.683-.92-5.836-0.57-7-1v-3h-4v-4a33.779,33.779,0,0,1-8-1v-3h-4c-1.109-4.67-3.628-3.05-5-6v-23c6.471-2.24,2.237-5.2,4-12,0.934-3.6,3.6-4.29,4-5q0.5-6,1-12c1.333-.33,2.667-0.67,4-1v-12h4a81.843,81.843,0,0,1,1-16h3v-12a2.826,2.826,0,0,0,1-1h3v-12h1v-1h3c-0.23-11.37,2.756-20.217,6-29h3V974l4-1c2.436-3.911-1.3-11.468,1-15l3-1V946l4-2c1.447-2.916.215-9.705,1-12h3c-0.128-13.081,4.336-16.8,5-29h4V891h1v-1h3V878c0.358-.869,3.677-2.383,4-3,1.553-2.961.5-11.55,1-14h3c-0.117-15.909,8.164-25.608,9-41,2.076-.372,1.924-0.242,3-1,1.541-2.312,1.119-8.105,1-12h4a81.859,81.859,0,0,1,1-16h3V779h1v-1h3V766h1v-1h3C642.86,752.774,646.6,748.917,648,738Zm779,31h15c0.99,0.446,1.31,3.593,2,4l16,1v4c10.65,0.023,10.55,3.814,21,4v4c3.82-.053,8.57-0.492,11,1,0.33,1,.67,2,1,3,1.91,1.1,7.6.5,9,1v3h7a2.826,2.826,0,0,0,1,1v3c11.15,0.018,11.05,4.619,21,5v4h11a2.826,2.826,0,0,0,1,1v3h8a2.826,2.826,0,0,0,1,1v3h7a2.826,2.826,0,0,0,1,1v3c12.1,0.151,17.2,8.551,29,9v4h8a2.826,2.826,0,0,0,1,1v3h8v4c8.47-.087,10.78,2.581,17,5v3l12,1v4h4v11c-2.67.924-6.93,1.051-11,1-2.36-7.155-27.55-4.312-37-4a2.826,2.826,0,0,0-1-1v-3h-21a2.826,2.826,0,0,0-1-1v-3h-23a2.826,2.826,0,0,0-1-1v-3c-6.01.059-15.7,1.332-20-1-0.33-1-.67-2-1-3-1.86-1.035-18.69-.719-21-1v-3c-10.2.049-20.06-.732-29-1-0.37-2.076-.24-1.924-1-3-4.62-2.941-29.27-1.113-37-1v4l-21,1v3h-2c-2.13,1.369-7.34-.554-10,1-0.68.4-1.01,3.563-2,4h-11c-0.37,2.076-.24,1.924-1,3-2.15,1.438-7.31,1.113-11,1-0.37,2.076-.24,1.924-1,3-2.31,1.433-6.9-.4-10,1-1.01.457-1.29,3.567-2,4h-8c-0.67,1.333-1.33,2.667-2,4l-12,1c-0.97.388-3.03,3.62-4,4h-11v3h-2c-2.41,1.529-8-.665-11,1-0.33,1-.67,2-1,3-3.43,1.838-10.11,1.039-15,1-0.37,2.076-.24,1.924-1,3-2.31,1.541-8.11,1.119-12,1-0.37,2.076-.24,1.924-1,3-3.22,1.976-10.03-.966-14,1-0.67,1.333-1.33,2.667-2,4l-12,1c-0.43.244-1.72,3.321-4,4h-12c-0.33,1.333-.67,2.667-1,4h-12c-0.37,2.076-.24,1.924-1,3-2.6,1.649-8.86-.829-12,1-0.68.4-1.02,3.564-2,4h-14c-0.37,2.076-.24,1.924-1,3-2.31,1.541-8.11,1.119-12,1-0.37,2.076-.24,1.924-1,3-3.91,2.544-9.99-.389-15,2-1.08.515-1.55,3.448-3,4h-10c-0.92.529-1.47,3.456-3,4h-10c-1.13.481-2.53,3.5-4,4h-12c-0.33,1.333-.67,2.667-1,4h-13c-0.91.522-1.48,3.46-3,4h-12c-0.33,1.333-.67,2.667-1,4l-16,1v3l-17,1v3c-15.03.94-21.01,4.9-37,5-0.37,2.076-.24,1.924-1,3-2.98,1.96-11.28,1.129-16,1v4H998c-0.372,2.076-.242,1.924-1,3-2.727,1.915-7.381,2.04-12,2v3c-7.83.92-8.958,4.474-17,5-0.372,2.076-.242,1.924-1,3-2.643,1.749-9.7,1.126-14,1v-1h-1v-3h-8v-2c-0.752-1.073-.6-0.946-1-3h-3c-0.351-3.075.684-12.415-1-16-0.5-1.076-3.459-1.55-4-3V870c1.411-3.486,3.659-2.657,4-9h4v-4c6.327-.987,1.873-1.883,5-4l8-1q0.5-1.5,1-3l11-1q0.5-1.5,1-3c3.269-2.117,11.128-.958,16-1v-3h2c3.494-2.28,13.65-1.131,19-1v-4h17c1.08-.509,1.55-3.457,3-4h22c0.37-2.076.24-1.924,1-3,4.68-3,17.35-2.091,24-2v-3l20-1c1.08-.511,1.55-3.454,3-4h14c0.33-1,.67-2,1-3,4.02-2.448,14.16-.958,20-1,0.37-2.076.24-1.924,1-3,2.98-1.96,11.28-1.129,16-1v-4c29.06,0.286,45.29-12.694,75-13,0.37-2.076.24-1.924,1-3,4.2-2.613,12.94,1.45,18-1,0.67-1.333,1.33-2.667,2-4h16c0.33-1.333.67-2.667,1-4h20c0.37-2.076.24-1.924,1-3,3.15-2.066,12.07-1.13,17-1,1.07-.752.95-0.6,3-1v-3l12-1v-3h2c1.48-.976,5.01.15,7-1,16.32-9.438,32.35-8,58-8h25c1.51,0.535,2.1,3.491,3,4,3.94,2.237,14.46-.18,18,1v3Zm216,109c0.33,2,.67,4,1,6h31c1.16,0.508-.05,1.7,3,2h22c0.99,0.444,1.31,3.6,2,4,3.19,1.875,24.68.156,29,1v3c9.52-.1,21.07-0.574,29,1v3c8.15-.111,21.69-2.052,28,1,0.33,1,.67,2,1,3,3.34,1.819,23.75.216,29,2v3h28a2.826,2.826,0,0,0,1,1v3c7.84-.061,22.18-2.151,28,1,0.33,1,.67,2,1,3h25c0.96,0.383,3.04,3.619,4,4h25c1.91,0.556,3.73,3.475,5,4,3.89,1.607,20.9.8,25,1v3l29,1v4h29v4c9.52-.1,21.07-0.574,29,1v3c6.7-.228,16.27-0.96,20,2h1c0.33,2,.67,4,1,6,5.31,0.922,7.26,3.977,12,6v3h4v4h4v4h4c1.83,5.658,7.37,7.6,10,13h3v4h4v4h4c1.09,3.763,1.79,3.548,5,5v3c2.08,0.372,1.92.242,3,1h1v3c2.08,0.372,1.92.242,3,1,2.41,2.38,4.4,3.64,5,8h4v4c6.73,0.58,6.3,3.74,12,5,0.37,2.08.24,1.92,1,3a27.9,27.9,0,0,0,8,6v3h4v4h4v4h4c1.09,3.76,1.79,3.55,5,5v3c2.08,0.37,1.92.24,3,1a27.9,27.9,0,0,1,6,8h3v4h4c1.6,5.05,3.84,4.56,4,12-0.8,1.02-.35.27-1,2-1,.33-2,0.67-3,1-3.65,2.09-10.2-2.37-16-3v-3c-2.67-.33-5.33-0.67-8-1v-1h-1v-3h-8v-4h-8c-0.33-1.33-.67-2.67-1-4h-8c-1.88-.62-2.79-3.41-4-4-2.1-1.03-6.32-.63-8-1v-3c-8.49-.19-9.16-3.88-17-5v-4h-11v-1h-1v-3h-8v-1h-1v-3a56.454,56.454,0,0,1-12-1v-3c-9.06.24-5.14-1.57-9-4-4.74-2.99-6.29,2.46-8-4q-6-.5-12-1c-0.37-2.08-.24-1.92-1-3-2.32-1.45-9.4-1.16-12-2v-3h-8v-4h-12a2.9,2.9,0,0,0-1-1v-3h-11c-0.67-1.333-1.33-2.667-2-4-4.39-2.179-11.17,1.084-15-1-0.33-1-.67-2-1-3-3.36-1.876-16.02-.623-20-2v-3c-5.59.02-15.19,1.315-19-1-0.33-1-.67-2-1-3h-22v-4h-28c-3.78-6.934-25.57-4.289-36-4-6.23-6.575-15.96-1.515-27-4-3.19-.717-7.19-3.269-9-4h-29c-11.68-2.539-16.65-5-32-5h-25c-0.67-1.333-1.33-2.667-2-4h-19c-0.67-1.333-1.33-2.667-2-4h-22c-1.45-.543-1.92-3.494-3-4-2.99-1.4-20.7-.767-24-1v-3c-8.31.041-22.64,2.193-29-1-0.33-1-.67-2-1-3-1.12-.614-37.78-0.954-41-1-0.37-2.076-.24-1.924-1-3-5.76-3.686-23.88-1.134-32-1a2.826,2.826,0,0,0-1-1v-3h-28a2.826,2.826,0,0,0-1-1v-3h-28a2.826,2.826,0,0,0-1-1v-3c-11.16.066-23.32-.285-33-1v-3c-8.7.064-17.67-.449-25-1v-3l-29-1c-2.23-6.858-23.07-4.329-32-4-2.61-4.1-4.93-2.446-9-5-3.12-3.636-4.91-7.281-5-14h1v-1c15.91-1.71,26.34-6.851,44-7v-5h1v-1l12-1c0.33-1,.67-2,1-3l14-1c0.67-1.333,1.33-2.667,2-4h12c0.37-2.076.24-1.924,1-3,2.53-1.619,7.72.583,11-1,0.67-1.333,1.33-2.667,2-4h11c0.37-2.076.24-1.924,1-3,3.49-2.28,13.65-1.131,19-1,2.12,6.6,19.49,4.346,28,4,5.28,7.917,16.67.824,27,4,1.87,0.574,2.83,3.465,4,4h24c3.46,0.907,4.45,3.7,5,4h21c2.71,0.644,5.47,3.233,7,4ZM448,969h15l1,3c2.161,3.149.758,10.669,0,14h-3q-0.5,6-1,12c-4.553,1.27-4.3,3.18-4,9h-4v11h-1v1h-3v8h-1v1h-3c-0.006,12.74-7.4,17.76-9,29h-4v12h-4v8h-1v1h-3v11h-1v1h-3v8h-1v1h-3c-0.132,9.74-4.174,11.5-5,20-2.076.37-1.924,0.24-3,1h-1v3c2.076,0.37,1.924.24,3,1h1v3c4.3-.02,9.687-0.1,12,2l1,3c1.959,1.02,6.615.5,8,1v3h7a2.909,2.909,0,0,0,1,1v3c6.732,0.24,8.051,2.86,13,5v3h7a2.909,2.909,0,0,0,1,1v3c3.382,0.14,5.156.49,7,2h1v3h5v4h7a2.909,2.909,0,0,0,1,1v3h4c0.372,2.08.242,1.92,1,3,1.268,0.86,3.035.14,5,1,2.294,1.01,4.011,3.66,7,5v3c6.239,0.97,5.812,4.13,12,5v4h4v1h1v3h7c1.092,3.76,1.787,3.55,5,5v3c2.333,0.33,4.667.67,7,1,1.094,3.02,6.145,7.52,10,8v4h8v4h4v4c9.986-.03,13.921,5.72,21,9v3c2.666,0.33,5.334.67,8,1v4h8c1.355,4.61,7.009,7.94,13,8v4c10.616,0.18,12.4,7.47,21,9v4h8v4h7c1.68,3.24,2.582,3.52,6,5v3h7v1h1v3c2.666,0.33,5.334.67,8,1v3c5.892,1.4,6.588,4.39,13,5v4h8v4a33.779,33.779,0,0,1,8,1v3h4v1h1v3a33.779,33.779,0,0,1,8,1v3c2.666,0.33,5.334.67,8,1v4h5c1.954,3.36,2.463,3.98,8,4v4h7v1h1v3c2.666,0.33,5.334.67,8,1v3h4v1h1v3c2.666,0.33,5.334.67,8,1v4h8v4h4v1h1v3h7v1h1v3h7v1h1v3c7.15,0.53,6.956,3.81,13,5v4h8v4h7v1h1v3h4v1h1v3h7v1h1v3c2.666,0.33,5.334.67,8,1v3c6.776,0.97,6.168,4.31,13,5v4h8v4a33.779,33.779,0,0,1,8,1v3h4v1h1v3a33.779,33.779,0,0,1,8,1v3c2.666,0.33,5.334.67,8,1v4h4v1h1v3h7v1h1v3h7v1h1v3c5.811,0.18,11.82,3.22,13,8,2.666,0.33,5.334.67,8,1v4h7v1h1v3c6.337,0.92,1.949,2.04,5,4,1.482,0.95,6.948.62,8,1v3a33.779,33.779,0,0,1,8,1v3c3.38,0.69,9.3,4.29,13,6v3h7v1h1v3c6.761,0.19,4.73,1.57,8,4h4c0.333,1.33.667,2.67,1,4,1.434,0.94,6.982.63,8,1v3c2.67,0.33,5.33.67,8,1v3c2.08,0.37,1.92.24,3,1,0.8,1.18.77,1.68,1,4h8v1h1v3h7v1h1v3c6.76,0.02,4.79,1.62,8,4h4c0.33,1.33.67,2.67,1,4,4.63,3.17,6.21-2.53,8,4a29.013,29.013,0,0,1,8,2v3h4v4h8v1h1v3h7v1h1v3a33.793,33.793,0,0,1,8,1v3c7.86,0.63,7.75,4.45,16,5,0.37,2.08.24,1.92,1,3,1.52,0.98,6.27,1.42,8,2v3h7v1h1v3h8v1h1v3h7v1h1v3c9.05-.27,5.16,1.58,9,4,5.08,3.2,6.97-2.77,8,5,3.66-.04,8.86-0.58,11,1,0.33,1,.67,2,1,3h8c0.33,1.33.67,2.67,1,4,1.48,0.95,6.95.62,8,1v3h7v1h1v3a38.533,38.533,0,0,1,9,1v3c2.67,0.33,5.33.67,8,1,0.37,2.08.24,1.92,1,3,1.55,1.05,4.09,1.03,7,1v4h8v1h1v3h7v1h1v3c2.67,0.33,5.33.67,8,1v3h4v1h1v3a33.793,33.793,0,0,1,8,1c0.89,4.76,2.55,4.26,8,4v4c6.34,0.92,1.95,2.04,5,4,1.48,0.95,6.95.62,8,1v3c2.08,0.37,1.92.24,3,1h1v3c9.36,0.65,10.27,6.79,17,10v3h4v4h4v4h4v4h4v4h3c1.12,2.09,1.43,1.83,2,5,2.08,0.37,1.92.24,3,1h1v3c2.08,0.37,1.92.24,3,1,1.05,1.55,1.03,4.09,1,7,2.08,0.37,1.92.24,3,1,4.05,4,5.25,6.25,5,15-7.99,2.69-22.18,1.08-32,1-4.58,6.86-24.03,4-35,4h-22c-0.9.51-1.48,3.47-3,4q-26.49.495-53,1c-21.29,0-39.13.17-57,4H907l-2,3q-10.5.495-21,1H857c-2.486-1.22-.682-3.02-5-4v-4h-3c-1.121-2.09-1.434-1.83-2-5h-4c-0.372-2.08-.242-1.92-1-3a76.611,76.611,0,0,0-11-6v-3h-4v-4h-4c-1.039-3.44-9.21-8.52-13-9v-4h-4v-4h-7v-1h-1v-3h-4v-1h-1v-3c-6.362-.18-11.333-3.09-12-9h-8c-0.372-2.08-.242-1.92-1-3-1.18-.8-1.681-0.77-4-1v-4h-7v-1h-1v-3c-9.1-.63-13.343-6.77-21-10v-3h-7c-1.012-3.68-.657-3.52-5-4v-4h-8v-1h-1v-3h-7v-1h-1v-3c-2.666-.33-5.334-0.67-8-1v-3h-3c-2.26-4.1-3.238-5.15-10-5v-4h-8v-4h-7v-1h-1v-3c-6.336-.4-8.2-2.94-13-5v-3c-11.466-.35-18.689-11.2-29-13v-4h-8c-0.372-2.08-.242-1.92-1-3-4.668-2.77-7.294.28-8-7-6.977-.12-6.287-2.2-12-3v-4h-8c-0.372-2.08-.242-1.92-1-3-1.18-.8-1.681-0.77-4-1v-4h-7v-1h-1v-3c-10.327-1.38-15.017-11.27-25-13v-4h-7v-1h-1v-3h-4v-1h-1v-3h-6c-2.192-3.54-5.46-5.76-8-9h-6v-4h-4v-1h-1v-3h-7a2.909,2.909,0,0,0-1-1v-3h-4v-4a33.779,33.779,0,0,1-8-1v-3c-4.72-.93-2.409-1.94-5-4-1.536-1.22-6.276-1.35-8-2v-3h-4v-4h-7a2.909,2.909,0,0,0-1-1v-3h-4c-2.989-8.37-15.339-6.68-17-17h-8c-1.012-3.68-.657-3.52-5-4v-4h-7a2.909,2.909,0,0,0-1-1v-3h-4v-4c-2.666-.33-5.334-0.67-8-1v-3h-2c-1.073-.75-0.946-0.6-3-1v-4h-7a2.909,2.909,0,0,0-1-1v-3h-4v-4a33.779,33.779,0,0,1-8-1v-3h-4a2.909,2.909,0,0,0-1-1v-3c-6.483-.78-6.791-3.74-12-5v-4c-6.566-.25-8-2.9-13-5v-3h-4v-4h-7a2.909,2.909,0,0,0-1-1v-3c-3.682-.76-8.757-4.23-13-6v-3h-4v-4h-8v-4h-4c-0.372-2.08-.242-1.92-1-3-1.515-.98-6.271-1.42-8-2v-3c-5.9-.92-6.125-3.94-12-5v-4c-7.137-.14-7.894-2.79-13-5v-3a33.779,33.779,0,0,1-8-1v-5c-4.4-.48-7.538-2.03-12-3v-3c-1.666-.33-3.334-0.67-5-1v-4h-8v-4c-6.267-.3-4.769-2.02-8-4h-4c-0.333-1.33-.667-2.67-1-4-1.445-.94-6.973-0.63-8-1v-3c-2.076-.37-1.924-0.24-3-1h-1v-3a33.779,33.779,0,0,1-8-1v-4h-8c-0.372-2.08-.242-1.92-1-3-1.18-.8-1.681-0.77-4-1v-4h-8v-4h-7a2.909,2.909,0,0,0-1-1v-3c-2.666-.33-5.334-0.67-8-1v-3c-1.667-.33-3.333-0.67-5-1v-4h-8v-4c-7.481.01-10.749-2.71-17-5v-3a33.779,33.779,0,0,1-8-1v-3c-2.666-.33-5.334-0.67-8-1v-3c-2.666-.33-5.334-0.67-8-1-0.333-1.33-.667-2.67-1-4h-6c-1.017-.51-1.249-3.52-2-4h-6c-5.236-2.63-6.156-7.44-15-8v-4H94c-0.372-2.08-.242-1.92-1-3-1.828-1.27-5.257-1.71-8-2v-4H77v-4H70a2.907,2.907,0,0,0-1-1v-3H65a2.907,2.907,0,0,0-1-1v-3H57a2.907,2.907,0,0,0-1-1v-3c-2.076-.37-1.925-0.24-3-1H52v-3c-2.666-.33-5.334-0.67-8-1-0.372-2.08-.242-1.92-1-3a19.263,19.263,0,0,0-4-2v-3H35v-4c-2.328-.2-2.826-0.19-4-1-3.278-1.2-4.815-3.39-8-5v-3c-2.076-.37-1.924-0.24-3-1-1.284-1.75-1.683-4.22-2-7H14v-4c-2.076-.37-1.924-0.24-3-1H10v-3c-2.076-.37-1.924-0.24-3-1-0.947-1.4.162-5.18-1-7-1.333-.33-2.667-0.67-4-1v-12c-6.609-15.4.885-38.51,5-50h3v-4c6.32-3.38,2.282-8.88,13-9,0.372-2.08.242-1.92,1-3,2.15-1.44,7.308-1.11,11-1,0.372-2.08.242-1.92,1-3,1.69-1.14,4.9-1.07,8-1,0.372-2.08.242-1.92,1-3,1.549-1.05,4.085-1.03,7-1,0.372-2.08.242-1.92,1-3,1.549-1.05,4.085-1.03,7-1,0.372-2.08.242-1.92,1-3,1.993-1.47,4.65-1.81,8-2v-3h2c1.418-.96,3.273-0.98,6-1,0.372-2.08.242-1.92,1-3,1.716-1.12,5.739.28,8-1l1-3c3.42-1.84,10.123-1.05,15-1,0.372-2.08.242-1.92,1-3,3.666-2.39,14.437-1.13,20-1v-4h17c0.372-2.08.242-1.92,1-3,4.637-2.97,13.467,1.09,19-2l1-3c4.434-2.39,11.68,1.09,17-1,0.959-.38,3.041-3.62,4-4h16v-3h2c3.494-2.28,13.648-1.13,19-1v-4h16c2.955-5.6,12.523-4.35,21-4,0.372-2.08.242-1.92,1-3,4.17-2.8,13.223-2.13,20-2v-3h2c2.811-1.854,10.487-1.128,15-1v-3l20-1c1.772-5.814,10.662-4.4,18-4,2.207-5.65,12.25-4.341,20-4,0.372-2.076.242-1.924,1-3,3.737-2.27,11.428,1.163,16-1l1-3c1.22-.888,6.825-1.727,8-2h12c0.587-.326,1.516-3.081,5-4h15c0.694-.411,1.007-3.554,2-4h15l1-3c4.184-2.26,13.163-.974,19-1v1h1v3Zm1087,5v3c9-.74,22.15.9,33,1,0.37,2.076.24,1.924,1,3,5.97,3.626,17.61-1.6,25,1,1.52,0.534,2.1,3.49,3,4h17c1.46,0.5,2.88,3.529,4,4,4.61,1.933,13.14-.278,17,1v3h16c0.97,0.391,3.03,3.611,4,4h11c1.45,0.558,1.91,3.48,3,4,3.54,1.7,12.34.7,16,2v3h12a2.9,2.9,0,0,0,1,1v3c4.69-.06,11.91-0.89,15,1,0.33,1,.67,2,1,3h11c0.99,0.45,1.31,3.59,2,4,2.24,1.33,10.18.63,12,1v3c11.43-.06,14.27,4.12,25,5v4h12v1h1v3h11v1h1v3h8v1h1v3h11v1h1v3q6,0.495,12,1v3c3,0.33,6,.67,9,1v4h12c0.37,2.08.24,1.92,1,3,1.52,0.98,6.27,1.42,8,2v3c12.19-.02,18.23,6.64,29,9v3c2.72-.01,4.6.04,6,1,4.23,2.15,3.46,4.01,11,4v4c9.61,0,11.17,3.81,20,5v3c6.35,0.11,20.99,7.79,22,13h8v4h8v4h8c0.37,2.08.24,1.92,1,3,1.27,0.78,4.12.04,6,1,2.49,1.27,4.65,6.64,7,8,2.08,1.21,5.67-.76,7,1v4h8c1.01,3.68.66,3.52,5,4v4h8v4c2.67,0.33,5.33.67,8,1v3h4c1.04,3.44,9.21,8.52,13,9v4h4v4h8c0.37,2.08.24,1.92,1,3a19.167,19.167,0,0,0,4,2v3c2.08,0.37,1.92.24,3,1h1v3c2.08,0.37,1.92.24,3,1,0.8,1.18.77,1.68,1,4h4v4h4v1h1v3c2.08,0.37,1.92.24,3,1h1v3h4v4c2.33,0.33,4.67.67,7,1,1.09,3.76,1.79,3.55,5,5v3h4v4h4c1.09,3.76,1.79,3.55,5,5v3c2.08,0.37,1.92.24,3,1h1v3c2.08,0.37,1.92.24,3,1h1v3c2.08,0.37,1.92.24,3,1,2.18,2.31,2.85,3.44,6,5v3a30.342,30.342,0,0,1,7,1v3c2.08,0.37,1.92.24,3,1,2.17,2.02,3.1,3.49,6,5v3c2.08,0.37,1.92.24,3,1,0.79,1.13-.02,4.54,1,6,2.05,2.94,3.81-.19,5,5h4v4h4v4c2.08,0.37,1.92.24,3,1h1v3c2.08,0.37,1.92.24,3,1,0.8,1.18.77,1.68,1,4h4v8h4v1h1v3c2.08,0.37,1.92.24,3,1,2.66,2.81,8.35,11.71,9,16,2.08,0.37,1.92.24,3,1,1.05,1.55,1.03,4.09,1,7h4v8h4v2c0.75,1.07.6,0.95,1,3h3c0.33,2.67.67,5.33,1,8h3v2c1.29,2.03-.34,6.28,1,9,1.33,0.67,2.67,1.33,4,2v8c1,0.33,2,.67,3,1,2,3.29,1.02,11.06,1,16,2.08,0.37,1.92.24,3,1,2.41,3.84,1,14.28,1,20v49h-4v12h-1v1h-3v11h-1v1h-3c-0.4,6.34-2.94,8.2-5,13h-3c-0.33,2.67-.67,5.33-1,8h-4v4h-4v4h-1v1h-3c-0.37,2.08-.24,1.92-1,3v1h-3c-0.37,2.08-.24,1.92-1,3v1h-3c-0.37,2.08-.24,1.92-1,3v1h-3c-0.37,2.08-.24,1.92-1,3-1.18.8-1.68,0.77-4,1v4h-4v4c-3.42.95-5.01,2.73-7,5h-5c-0.37,2.08-.24,1.92-1,3-1.18.8-1.68,0.77-4,1v4h-8v4h-4c-0.37,2.08-.24,1.92-1,3-4.17,2.91-9.14,4.06-16,4v5a25.246,25.246,0,0,1-8,1c-0.37,2.08-.24,1.92-1,3-1.43.98-5.15-.17-7,1-0.33,1.33-.67,2.67-1,4h-8c-0.37,2.08-.24,1.92-1,3-2.15,1.44-7.31,1.11-11,1v4a38.533,38.533,0,0,0-9,1v3q-6,.495-12,1v3h-2c-2.15,1.44-7.31,1.11-11,1-0.37,2.08-.24,1.92-1,3-2.15,1.44-7.31,1.11-11,1-0.37,2.08-.24,1.92-1,3-2.59,1.58-8.86-.8-12,1-0.91.52-1.48,3.46-3,4h-13c-0.33,1.33-.67,2.67-1,4h-14c-1.49.56-1.89,3.44-3,4q-7.995.495-16,1c-0.33,1-.67,2-1,3q-10.005.495-20,1v3h-2c-4.19,2.71-16.8,1.13-23,1-0.37,2.08-.24,1.92-1,3-4.89,3.11-31.81,1.11-40,1-0.62,1.55-.74,3.37-2,4h-49c-1.91-.56-3.73-3.47-5-4h-48c-2.23-.67-3.63-3.79-4-4h-29c-0.67-1.33-1.33-2.67-2-4h-24c-2.23-.67-3.63-3.79-4-4h-17c-2.89-.8-3.77-3.37-5-4-5.12-2.63-12.94,1.16-19-1-1.51-.54-2.11-3.49-3-4-3.96-2.25-14.44.2-18-1v-3h-16v-1h-1v-3h-16v-1h-1v-3h-15v-1h-1v-3q-7.995-.495-16-1c-1.25-.63-2.07-3.38-4-4-3.23-1.03-7.69-.19-10-1v-3h-12c-0.33-1.33-.67-2.67-1-4h-12c-1.51-.55-2.1-3.48-3-4h-9c-1.88-.61-2.8-3.42-4-4-2.56-1.23-6.14.23-8-1-0.88-1.29-.89-2.47-1-5-10.84.07-13.86-2.8-24-3-0.37-2.08-.24-1.92-1-3-2.98-1.95-14.68-5.02-20-5-0.37-2.08-.24-1.92-1-3-3.86-2.41-15.01-4.3-20-6v-3c-10.77-.09-10.89-4.65-21-5v-4h-8c-0.33-1.33-.67-2.67-1-4h-9c-1.46-.57-1.9-3.46-3-4-2.05-1.01-6.56-.48-8-1v-3c-9.06.24-5.14-1.57-9-4-4.74-2.99-6.29,2.46-8-4-2.67-.33-5.33-0.67-8-1v-4h-8v-1h-1v-3c-14.18.15-22.49-8.51-33-13v-3c-2.67-.33-5.33-0.67-8-1-0.37-2.08-.24-1.92-1-3-1.52-.98-6.27-1.42-8-2v-3h-8v-4h-8v-4c-10.88-.14-12.16-7.25-21-9v-4h-8c-0.33-1.33-.67-2.67-1-4h-6c-2.91-1.46-.98-3.15-6-4v-4h-7v-1h-1v-3c-6.69-.76-5.95-4.21-13-5v-4c-7.45-.25-5.99-2.99-12-4v-4c-6.73-.24-8.05-2.86-13-5v-3c-2.08-.37-1.92-0.24-3-1h-1v-3c-2.67-.33-5.33-0.67-8-1v-4h-4v-1h-1v-3h-4c-0.37-2.08-.24-1.92-1-3-1.34-.88-5.45-1.46-7-2v-3h-4v-4h-4c-0.37-2.08-.24-1.92-1-3-1.75-1.36-4.94-.5-7-2-2.02-1.47-.93-3.06-5-5v-3h-4v-4h-4v-4h-4c-1.46-4.58-8.82-8.2-13-10v-3c-2.08-.37-1.92-0.24-3-1h-1v-3h-4v-4h-4v-6h-4c-1.46-2.12-2.62-2.79-5-4v-3c-2.08-.37-1.92-0.24-3-1h-1v-3c-2.08-.37-1.92-0.24-3-1-3.1-3.12-4.89-4.61-5-11h-4c-1.29-4.15-4.05-5.23-6-9h-3v-4c-2.08-.37-1.92-0.24-3-1-1.05-1.55-1.03-4.09-1-7h-4v-4c-2.08-.37-1.92-0.24-3-1-0.8-1.18-.77-1.68-1-4-2.08-.37-1.92-0.24-3-1-2.3-3.19-5.87-9.9-6-15-2.08-.37-1.92-0.24-3-1-3.09-3.33-4.91-5.46-5-12-2.08-.37-1.92-0.24-3-1-2.83-4.22-5.04-12-5-19-2.08-.37-1.92-0.24-3-1-1.92-2.73-2.04-7.38-2-12h-3a149.589,149.589,0,0,1-1-17c-2.08-.37-1.92-0.24-3-1-3.93-6.24-1.11-44.5-1-55,0.8-1.02.35-.27,1-2h3c-0.26-12.63,2.57-19.49,6-29h3v-8c2.08-.37,1.92-0.24,3-1,0.98-1.52,1.42-6.27,2-8h3v-4h4v-7h1v-1h3v-4c3.59-1.6,8.44-8.74,9-13h4v-4h4v-4c2.08-.37,1.92-0.24,3-1,2.91-3.25,4.54-7.23,10-8,0.37-2.08.24-1.92,1-3,1.55-1.05,4.09-1.03,7-1v-4h4v-4h5c0.37-2.08.24-1.92,1-3,1.75-1.28,4.22-1.68,7-2v-3h2c1.42-.96,3.27-0.98,6-1,0.37-2.08.24-1.92,1-3,1.55-1.05,4.09-1.03,7-1,0.37-2.08.24-1.92,1-3,1.69-1.14,4.9-1.07,8-1v-4h8c0.37-2.08.24-1.92,1-3,2.28-1.45,8.27.71,11-1,0.33-1.33.67-2.67,1-4q6-.5,12-1v-3h2c2.3-1.477,6.98.465,10-1,0.67-1.333,1.33-2.667,2-4h11v-3h2c2.81-1.854,10.49-1.128,15-1,0.37-2.076.24-1.924,1-3,3.2-1.987,12.42-.841,16-2v-3h19a2.826,2.826,0,0,1,1-1v-3l21-1v-3c18.39-2,29.24-4.908,50-5v-3h2c2.85-1.777,41.49-2.5,47-1,2.63,0.717,4.11,3.594,5,4h113c2.24,0.667,3.62,3.789,4,4C1508.39,974.332,1531.8,973.848,1535,974Zm288,12c9.22-.1,20.36-0.517,28,1v3h28c0.99,0.444,1.31,3.6,2,4,3.01,1.77,28.76.5,33,1v3c9.91-.065,20.52.368,29,1v3q16.995,0.5,34,1c2.23,6.86,23.07,4.33,32,4a2.9,2.9,0,0,0,1,1v3a33.793,33.793,0,0,1,8,1v3c9.06-.24,5.14,1.57,9,4,4.74,2.99,6.29-2.46,8,4,8.29,0.35,8.8,4.22,17,5v4h8v4a56.454,56.454,0,0,1,12,1v3h8v1h1v3h8c0.37,2.08.24,1.92,1,3,1.81,1.16,17.36,5.67,20,6v4h12c0.37,2.08.24,1.92,1,3,1.69,1.14,4.9,1.07,8,1v4a56.454,56.454,0,0,1,12,1v3h8v1h1v3c9.2,0.2,4.94,1.91,9,4,3.67,0.33,7.33.67,11,1,0.33,1.33.67,2.67,1,4h8v4h11v1h1v3h8v1h1v3c12.76,0.01,17.2,7.86,29,9v4h8c0.33,1.33.67,2.67,1,4h10c1,0.47,1.29,3.57,2,4,1.61,0.98,6.86.59,8,1v3h8v1h1v3c10.41-.02,11.17,4.14,20,5,0.37,2.08.24,1.92,1,3,1.69,1.14,4.9,1.07,8,1v4c3.66-.04,8.86-0.58,11,1,0.33,1,.67,2,1,3h8c0.33,1.33.67,2.67,1,4,1.48,0.95,6.95.62,8,1v3c9.6-.14,13.78,3.16,21,6v3h8v4a56.454,56.454,0,0,1,12,1v3h8v1h1v3h8v4q6,0.495,12,1v3c3,0.33,6,.67,9,1v4h8c0.33,1.33.67,2.67,1,4,3.33,0.33,6.67.67,10,1,0.33,1,.67,2,1,3,1.9,1.1,7.61.51,9,1v3h8v1h1v3c9.88,0.04,11.15,4.15,20,5v3c3,0.67,6,1.33,9,2v3h8c0.33,1.33.67,2.67,1,4h10c0.67,1.33,1.33,2.67,2,4,1.97,1.01,6.61.5,8,1v3c11.24,0.23,17.82,8.57,29,9v4h8c1.27,4.55,3.18,4.3,9,4,1.07,0.75.95,0.6,3,1v3c8.49,0.19,9.16,3.88,17,5v3c8.45,0.62,8.32,4.57,17,5v4c7.48-.01,10.75,2.71,17,5v3h4v4h4c0.37,2.08.24,1.92,1,3,1.95,1.57,9.37,5.6,12,6v4h4v4h4v4c8.84,0.82,9.33,7.43,17,9v4h4v4h4v4h4v8h4c0.33,3,.67,6,1,9,2.08,0.37,1.92.24,3,1,2.17,3.32,1.13,12.86,1,18-5.69,8.08-1.26,13.84-4,25-0.99,4.04-4.03,6.44-5,10-1.38,5.09.32,12.01-1,16h-3v13h-4v11h-1v1h-3a33.793,33.793,0,0,1-1,8c-3.86,1.32-10.61,1.07-16,1v-4c-2.08-.37-1.92-0.24-3-1h-1v-3c-2.08-.37-1.92-0.24-3-1-2.18-2.31-2.85-3.44-6-5v-3c-2.08-.37-1.92-0.24-3-1h-1v-3h-4v-4h-4v-4h-4v-4h-4c-1.34-4.37-4.05-5.01-6-9h-3v-4h-4v-4h-4v-4h-4v-4h-4v-1h-1v-3c-2.33-.33-4.67-0.67-7-1-0.37-2.08-.24-1.92-1-3a19.167,19.167,0,0,0-4-2v-3h-4v-4h-4v-4h-4c-1.09-3.76-1.79-3.55-5-5v-3c-2.08-.37-1.92-0.24-3-1-2.41-2.38-4.4-3.64-5-8h-4v-4c-2.53-.07-3.72-0.12-5-1-2.98-.97-5.85-3.08-7-6-0.75-1.07-.6-0.95-1-3h-4c-2.37-4.65-7.02-4.73-8-11h-4v-4h-4v-1h-1v-3c-2.08-.37-1.92-0.24-3-1h-1v-3c-2.08-.37-1.92-0.24-3-1h-1v-3c-2.33-.33-4.67-0.67-7-1-1.01-3.68-.66-3.52-5-4v-4h-4c-0.37-2.08-.24-1.92-1-3-1.52-.98-6.27-1.42-8-2v-3h-11v-1h-1v-3c-9.62-.01-11.85-3.79-21-5v-3c-10.07-.41-5.43-2.68-9-5h-8c-0.98-.46-1.3-3.59-2-4-2.02-1.2-8.46-.46-10-1v-3h-8c-0.37-2.08-.24-1.92-1-3-1.52-.98-6.27-1.42-8-2v-3h-7v-1h-1v-3c-3-.33-6-0.67-9-1v-4h-8v-4h-11v-1h-1v-3c-7.61-.04-10.7-2.7-17-5v-3h-7c-1.71-3.45-1.78-3.85-7-4-1.07-.75-0.95-0.6-3-1v-4h-10c-2.04-4.07-3.66-4.25-10-4-0.37-2.08-.24-1.92-1-3-1.52-.98-6.27-1.42-8-2v-3h-8v-4c-10.63.04-11.97-4.14-21-5-0.37-2.08-.24-1.92-1-3-1.43-.98-5.15.17-7-1-0.33-1.33-.67-2.67-1-4h-8c-0.37-2.08-.24-1.92-1-3-2.11-1.32-8.64-1.23-11-2v-3c-7.48.01-10.75-2.71-17-5v-3c-4.53.01-8.48-.02-11-2-0.33-1-.67-2-1-3-1.8-1.09-7.67-.53-9-1v-3h-8v-4h-8c-0.33-1.33-.67-2.67-1-4h-8c-1.88-.62-2.79-3.41-4-4-2.1-1.03-6.32-.63-8-1v-3c-9.04-.25-8.27-4.41-17-5v-4h-11v-1h-1v-3h-8v-1h-1v-3h-7v-1h-1v-3c-13.93,0-16.57-8.34-29-9v-4h-8a18.263,18.263,0,0,1-1-6c-8.26.18-13.9-.8-20-3v-3h-8v-1h-1v-3a33.793,33.793,0,0,1-8-1v-3c-3.67-.33-7.33-0.67-11-1v-1h-1v-3h-8v-1h-1v-3h-8v-4h-8v-1h-1v-3q-6-.495-12-1v-3a33.793,33.793,0,0,1-8-1v-3c-3-.33-6-0.67-9-1v-4h-11v-1h-1v-3c-7.48.01-10.75-2.71-17-5v-3h-11v-1h-1v-3a38.533,38.533,0,0,1-9-1v-3q-6-.495-12-1v-4h-8v-1h-1v-3c-6.7.05-14.12-2.9-20-5v-3h-8a2.9,2.9,0,0,0-1-1v-3a33.793,33.793,0,0,1-8-1v-3a33.793,33.793,0,0,1-8-1,2.9,2.9,0,0,0-1-1v-3a50.14,50.14,0,0,1-11-1v-3c-6.07-.33-4.72-2.32-8-4h-5c-0.33-1.33-.67-2.67-1-4-1.47-.95-6.96-0.621-8-1v-3l-8-1c-0.04-4.5-1.28-12.579-1-13,1.42-.961,3.27-0.976,6-1,2.28,2.461,8.51,1.894,12,3v3Zm400,212h7v1h1v3c9.12,0.28,7.78,4.56,17,5v4h11v1h1v3c7.48-.01,10.75,2.71,17,5v3q6,0.495,12,1v3c3,0.33,6,.67,9,1v3c2.67,0.33,5.33.67,8,1v4h12v4h8v1h1v3c9.88-.06,12.63,3.2,21,5v3a33.793,33.793,0,0,1,8,1v3c3.67,0.33,7.33.67,11,1v1h1v3h8v1h1v3h8v4h8v1h1v3c10.35,0.01,16.73,6.52,25,10v3h8v4a33.793,33.793,0,0,1,8,1v3h4c0.37,2.08.24,1.92,1,3a19.167,19.167,0,0,0,4,2v3c2.08,0.37,1.92.24,3,1a48.306,48.306,0,0,0,13,9v3c2.08,0.37,1.92.24,3,1h1v3c2.08,0.37,1.92.24,3,1,3.21,3.04,9.24,10.92,10,16h4v4h4v4h4c0.33,1.67.67,3.33,1,5h3c1.05,4.79,2.88,3.23,4,8h4c1.09,3.76,1.79,3.55,5,5v3h4v4h4c1.09,3.76,1.79,3.55,5,5v3c2.08,0.37,1.92.24,3,1h1v3c2.67,0.33,5.33.67,8,1v4h4v4h4c1.09,3.76,1.79,3.55,5,5v3c5.13,0.89,7.44,3.98,12,6v3c2.08,0.37,1.92.24,3,1,2.06,2.06,4.14,3.69,5,7,2.08,0.37,1.92.24,3,1h1v3c2.08,0.37,1.92.24,3,1,4.52,4.51,7.85,10.11,14,13v3c2.08,0.37,1.92.24,3,1h1v3c2.08,0.37,1.92.24,3,1a27.9,27.9,0,0,1,6,8h3c0.37,2.08.24,1.92,1,3,3.65,3.54,7.16,7.72,12,10v3c2.08,0.37,1.92.24,3,1,5.5,5.89,10.31,13.38,18,17v3c2.08,0.37,1.92.24,3,1h1v3c2.08,0.37,1.92.24,3,1,4.59,4.62,16.96,13.22,18,20h4v1h1v3h4v4h4v4h4v4c3.38,0.14,5.16.49,7,2h1v3c2.08,0.37,1.92.24,3,1h1v3c2.08,0.37,1.92.24,3,1h1v3h3a27.942,27.942,0,0,0,10,10v3c2.08,0.37,1.92.24,3,1h1v3c2.08,0.37,1.92.24,3,1,5.45,5.68,11.67,11.29,15,19h3v4c3.38,0.14,5.16.49,7,2h1v3c2.08,0.37,1.92.24,3,1h1v3c2.08,0.37,1.92.24,3,1h1v3h3c3.21,5.08,8.28,7.3,11,13h3c0.37,2.08.24,1.92,1,3a19.167,19.167,0,0,0,4,2v3c2.08,0.37,1.92.24,3,1h1v3h4v4h4v4h4v4h3c1.12,2.09,1.43,1.83,2,5h4v4h4v4h4v4h4v4c6.98,0.65,5.83,3.96,12,5v4h4c1.09,3.76,1.79,3.55,5,5v3c2.08,0.37,1.92.24,3,1h1v3c2.08,0.37,1.92.24,3,1h1v3c2.08,0.37,1.92.24,3,1,2.7,2.26,5.16,3.68,6,8h4v4h4v4h4v4h4v4h4c1.36,4.26,4.07,4.89,6,9h3v4h4v4h4v4h4v4h4v1h1v3c2.08,0.37,1.92.24,3,1,2.41,2.38,4.4,3.64,5,8h4v4c7.95,0.89,9,7.31,16,9,0.37,2.08.24,1.92,1,3a19.167,19.167,0,0,0,4,2v3h4v4h4v4h4v4h4c0.37,2.08.24,1.92,1,3,3.47,3.22,6.84,5.37,9,10h3v4h4v4h4v4h4c1.09,3.76,1.79,3.55,5,5v3c2.08,0.37,1.92.24,3,1,2.41,2.38,4.4,3.64,5,8h4v4h4v4h4v1h1v3c2.08,0.37,1.92.24,3,1h1v3c2.08,0.37,1.92.24,3,1h1v3c2.08,0.37,1.92.24,3,1,0.8,1.18.77,1.68,1,4h4v4h6c3.05,5.03,9.51,11.44,15,14v3c2.08,0.37,1.92.24,3,1h1v3c2.08,0.37,1.92.24,3,1h1v3h4v4h4c1.83,5.66,7.37,7.6,10,13h3v4h4v4h4c1.09,3.76,1.79,3.55,5,5a127.345,127.345,0,0,1,1,15c-4.43-.42-4.62-2.1-7-3h-20v3h-2c-3.72,2.28-13.46,1-19,1h-65c-12.66,6.02-37.24,4-56,4h-21c-1.12.47-2.54,3.5-4,4-7.12,2.42-21.69.65-28,1h-21c-0.33,1-.67,2-1,3-7.48,3.58-23.52.98-33,1v3a237.588,237.588,0,0,1-25,1c-0.37,2.08-.24,1.92-1,3-3.83,2.41-12.55-1.5-17,1-0.33,1-.67,2-1,3-2.96,1.79-9.49,1.03-14,1v4h-12v4h-5c-0.37,2.08-.24,1.92-1,3-1.42.96-3.27,0.98-6,1-2.25-3.23-4.28-2.91-5-8h-4v-4c-2.08-.37-1.92-0.24-3-1-5.01-6.58-6.2-10.99-6-23h1v-1h3c-0.08-10.3,3.2-10.29,5-16,1.64-5.22-.45-12.79,1-17h3V1746c1.93-4.31,3.79-.7,4-10-2.08-.37-1.92-0.24-3-1h-1v-3c-2.08-.37-1.92-0.24-3-1a19.167,19.167,0,0,1-2-4h-3v-4c-2.08-.37-1.92-0.24-3-1-2.06-2.06-4.14-3.69-5-7-0.8-1.18-.77-1.68-1-4h-4v-4h-4v-4h-4v-4h-3c-1.12-2.09-1.43-1.83-2-5h-4v-4h-4v-4h-4v-4c-2.08-.37-1.92-0.24-3-1h-1v-3c-2.08-.37-1.92-0.24-3-1-0.8-1.18-.77-1.68-1-4h-4c-0.37-2.08-.24-1.92-1-3-4.67-4.32-11.18-9.04-12-17h-4v-4c-2.08-.37-1.92-0.24-3-1-2.32-2.62-2.39-3.39-6-5v-3c-2.08-.37-1.92-0.24-3-1h-1v-3c-2.08-.37-1.92-0.24-3-1h-1v-3c-2.08-.37-1.92-0.24-3-1h-1v-3c-2.08-.37-1.92-0.24-3-1-2.41-2.38-4.4-3.64-5-8h-4c-0.37-2.08-.24-1.92-1-3-4.22-4.08-7.67-9.07-12-13v-4c-2.08-.37-1.92-0.24-3-1-0.8-1.18-.77-1.68-1-4h-4v-4h-4v-1h-1v-3c-2.08-.37-1.92-0.24-3-1h-1v-3c-2.08-.37-1.92-0.24-3-1h-1v-3c-2.08-.37-1.92-0.24-3-1-2.41-2.38-4.4-3.64-5-8h-4v-4h-4c-0.37-2.08-.24-1.92-1-3-4.22-3.85-11.16-8.03-12-15h-4c-1.03-4.83-4.63-10.1-9-12v-3c-2.08-.37-1.92-0.24-3-1h-1v-3c-2.08-.37-1.92-0.24-3-1h-1v-3c-2.08-.37-1.92-0.24-3-1-2.41-2.38-4.4-3.64-5-8h-4c-0.37-2.08-.24-1.92-1-3a19.167,19.167,0,0,0-4-2v-3c-2.33-.2-2.83-0.19-4-1-4.99-1.94-7.06-6.61-12-9v-3h-4v-4h-4v-4h-3c-2.89-5.16-8.94-6.33-10-13h-4v-4c-2.08-.37-1.92-0.24-3-1-2.83-4.51-.74-5.64-6-8v-3c-2.08-.37-1.92-0.24-3-1h-1v-3c-2.08-.37-1.92-0.24-3-1-0.8-1.18-.77-1.68-1-4-2.08-.37-1.92-0.24-3-1-4.73-5.3-7.06-12.88-14-16v-3c-2.08-.37-1.92-0.24-3-1h-1v-3c-2.08-.37-1.92-0.24-3-1-2.41-2.38-4.4-3.64-5-8h-4v-4h-4c-0.37-2.08-.24-1.92-1-3a19.167,19.167,0,0,0-4-2v-3c-2.08-.37-1.92-0.24-3-1h-1v-3c-2.08-.37-1.92-0.24-3-1-2.41-2.38-4.4-3.64-5-8h-4v-4h-4c-0.37-2.08-.24-1.92-1-3a19.167,19.167,0,0,0-4-2v-3c-2.08-.37-1.92-0.24-3-1h-1v-3c-2.08-.37-1.92-0.24-3-1h-1v-3c-2.08-.37-1.92-0.24-3-1-0.8-1.18-.77-1.68-1-4h-4v-4h-4c-0.37-2.08-.24-1.92-1-3a19.167,19.167,0,0,0-4-2v-3c-2.08-.37-1.92-0.24-3-1h-1v-3c-2.08-.37-1.92-0.24-3-1h-1v-3c-2.08-.37-1.92-0.24-3-1-0.8-1.18-.77-1.68-1-4h-4v-4h-4v-4h-4v-2c-0.8-1.18-.77-1.68-1-4h-4v-3h-3c-0.33-2.67-.67-5.33-1-8h-4v-4h-4v-4h-4v-4h-4c-1.34-4.37-4.05-5.01-6-9h-3v-4h-4v-4h-4v-4c-2.08-.37-1.92-0.24-3-1a27.9,27.9,0,0,1-6-8h-3v-4h-4v-3c-4.18-2.29-5.21-5.41-8-9-5.59-7.18-26.08-26.72-34-31v-3h-4c-0.37-2.08-.24-1.92-1-3a27.9,27.9,0,0,0-8-6v-3c-2.08-.37-1.92-0.24-3-1h-1v-3h-4v-4h-4v-2c-1.93-2.79-.69-8.02,0-11h13c3.25,3.57,6.64,3.26,12,5v3Zm179,280v4c2.08,0.37,1.92.24,3,1,3.1,3.12,4.89,4.61,5,11h4v1h1v3c2.08,0.37,1.92.24,3,1h1v3c2.08,0.37,1.92.24,3,1,2.41,2.38,4.4,3.64,5,8h4v4h4v4h4c1.09,3.76,1.79,3.55,5,5v3c2.08,0.37,1.92.24,3,1a19.167,19.167,0,0,1,2,4h3v4h4v4h4v4c2.08,0.37,1.92.24,3,1a27.9,27.9,0,0,1,6,8h3c0.33,2.67.67,5.33,1,8h4v4h4v4h4v4h4c2.03,6.01,7.85,6.01,9,13h4v4h4v4h4v4c2.08,0.37,1.92.24,3,1a27.9,27.9,0,0,1,6,8h3c0.33,2.67.67,5.33,1,8h4v4h4v4h4v4h4c1.57,4.82,4.09,3.42,5,9h4v4h4v4c2.08,0.37,1.92.24,3,1h1v3c2.08,0.37,1.92.24,3,1,0.8,1.18.77,1.68,1,4h4c0.14,3.38.49,5.16,2,7v1h3v4h4v4h4v4c2.08,0.37,1.92.24,3,1h1v3c2.08,0.37,1.92.24,3,1,0.88,1.31-.14,5.32,1,7,1.98,2.93,3.81-.16,5,5h3c1.45,20.48,4.07,32.71,0,54h-3q-0.495,6.495-1,13h-4v11h-4v12h-1v1h-3v11c-0.45.98-3.6,1.31-4,2-2.12,3.61.11,13.76-1,17h-3c0.06,6.67,1.89,19.24-1,24-1,.33-2,0.67-3,1q-0.495,11.505-1,23c-1.33.67-2.67,1.33-4,2v22c-0.44.99-3.6,1.31-4,2-1.48,2.52-.58,25.49-1,29h-3v24c-0.44.99-3.6,1.31-4,2v21c-0.58,1.87-3.46,2.83-4,4-1.41,3.05-.84,20.6-1,24h-3c0.18,8.15.13,16.44-2,22h-3v20c-6,1.85-4.39,12.41-4,20h-1v1h-3v16h-1v1h-3c0.12,14.9-3.94,19.23-5,33h-3q-0.495,6.495-1,13h-4v33c4.35,1.2,4.21,2.44,4,8,2.43,3.86-1.47,12.46,1,17,1,0.33,2,.67,3,1,1.93,3.88,2.65,37.99,1,44-1.53,5.59-4.54,8.14-5,17-2.08.37-1.92,0.24-3,1-0.98,1.52-1.42,6.27-2,8h-3v8h-4c0.01,7.48-2.71,10.75-5,17h-3q-0.495,6-1,12h-3c0.13,6.37-.31,12.28-2,17h-3v33c-0.53,1.52-3.49,2.1-4,3v14c-0.01,25.16,3.47,55.79-1,79h-3v24c-0.52,1.08-3.45,1.55-4,3-1.63,4.32.18,11.54-1,15h-3v11h-1v1h-3a38.533,38.533,0,0,1-1,9h-4v8h-4v7h-1v1h-3v4c-7.35,2.51-6.37,8.74-17,9v4c-5.1.69-3.09,2.59-6,4-1.91.92-5.69,0.51-7,1v3q-6,.495-12,1v3h-2c-6.01,4.18-12.6,5.12-23,5-0.37,2.08-.24,1.92-1,3-2.26,1.41-8.29-.69-11,1-0.33,1.33-.67,2.67-1,4h-13c-2.45,1.33.79,2.29-5,3-1.59-2.73-.9-2.51-5-3-2.89,5.5-11.67,4.35-20,4-2.86,4.78-14.63,3-22,3h-46c-0.33-1-.67-2-1-3h-16v-4h-12v-1h-1v-3h-11v-1h-1v-3h-8v-1h-1v-3c-8.65.02-9.92-3.04-15-5h-5c-0.33-1.33-.67-2.67-1-4-1.47-.95-6.95-0.62-8-1v-3h-8v-4c-9.75-.04-14.23-5.72-21-9v-3c-3-.33-6-0.67-9-1v-4h-8v-4h-7v-1h-1v-3c-6.34-.92-1.95-2.04-5-4-1.48-.95-6.95-0.62-8-1v-3c-6.36-.18-11.33-3.09-12-9h-8v-1h-1v-3c-6.59-.63-5.45-3.35-12-4v-4a33.793,33.793,0,0,1-8-1v-3h-4v-1h-1v-3c-2.33-.33-4.67-0.67-7-1-1.01-3.68-.66-3.52-5-4v-4h-8v-4h-4v-1h-1v-3a33.793,33.793,0,0,1-8-1v-3c-2.08-.37-1.92-0.24-3-1-0.8-1.18-.77-1.68-1-4h-8v-4h-5v-4c-7.45-.25-5.99-2.99-12-4v-4h-4c-2.58-6.98-11.53-4.02-13-13h-7v-1h-1v-3h-4v-4h-7v-1h-1v-3h-4v-1h-1v-3c-2.08-.37-1.92-0.24-3-1h-1v-3c-2.67-.33-5.33-0.67-8-1-0.37-2.08-.24-1.92-1-3a19.167,19.167,0,0,0-4-2v-3h-7c-1.01-3.68-.66-3.52-5-4v-4h-4v-4h-7c-2.45-4.77-11.93-12.15-18-13v-4h-4c-0.37-2.08-.24-1.92-1-3-1.29-.84-5.33.11-7-1s-1.23-3.2-5-5v-3c-2.67-.33-5.33-0.67-8-1v-4h-4v-4c-5.47-.62-3.07-2.46-6-4-1.75-.92-5.79-0.55-7-1v-3c-5.01-.59-7.53-3.17-12-5v-3c-4.72-.93-2.41-1.94-5-4-1.54-1.22-6.28-1.35-8-2v-3h-4v-4h-8v-4h-4v-1h-1v-3h-7v-1h-1v-3c-2.67-.33-5.33-0.67-8-1v-3a54.71,54.71,0,0,1-8-2v-3h-5c-1.95-3.36-2.46-3.98-8-4-0.37-2.08-.24-1.92-1-3-1.55-1.05-4.09-1.03-7-1v-4h-8v-1h-1v-3a33.793,33.793,0,0,1-8-1v-3c-2.67-.33-5.33-0.67-8-1v-4h-8v-4h-4v-1h-1v-3h-7v-1h-1v-3h-4v-4h-4c-1-2.27-.75-2.77-3-4-1.29-.88-2.47-0.89-5-1-0.37-2.08-.24-1.92-1-3a19.167,19.167,0,0,0-4-2v-3c-2.08-.37-1.92-0.24-3-1a72.409,72.409,0,0,1-11-16h-3v-4c-2.08-.37-1.92-0.24-3-1-1.05-1.55-1.03-4.09-1-7h-4c-0.13-7.58-3.77-11.88-3-14,1.46-2.54-.22-1.13,3-2,2.58-1.4,6.15,1.77,9,3,1.66-6.97,24.41-4.33,33-4,0.37-2.08.24-1.92,1-3,5.76-3.69,23.88-1.13,32-1,1.47-5.08,5.56-4.41,12-4,4.01-2.6,16.01-1.13,22-1v-3c24.89-.5,40.89-4.87,67-5v-3c3.87-.25,30.13.61,33-1,0.41-.23,1.73-3.33,4-4h30c0.9-.52,1.48-3.46,3-4h33c1.4-4.92,4.74-4.39,11-4,4.19-2.71,16.8-1.13,23-1v-3c3.62-.13,30.34.49,33-1,0.41-.23,1.73-3.33,4-4h29c1.08-.51,1.55-3.46,3-4h31v-3h2c4.71-3.03,19.16-1.13,26-1q0.495-7.995,1-16c2.08-.37,1.92-0.24,3-1,1.51-2.35-.4-6.84,1-10,1.88-4.24,3.94-.7,4-10,2.08-.37,1.92-0.24,3-1,0.98-1.52,1.42-6.27,2-8h3v-7h1v-1h3c0.28-10.13,7.5-12.46,9-21h4v-8h4v-7c3.24-1.68,3.52-2.58,5-6h3a33.793,33.793,0,0,1,1-8h3c0.33-2.67.67-5.33,1-8,1.33-.33,2.67-0.67,4-1,1.21-1.91.68-9.46,1-11h3c-0.06-4.04-.59-9.4,1-12,1-.33,2-0.67,3-1,1.59-2.8.2-10.69,1-13h3c-0.22-13.53,3.56-24.21,8-33q0.495-6,1-12c1.33-.33,2.67-0.67,4-1,1.44-2.3.35-10.12,1-12h3v-12h1v-1h3a56.454,56.454,0,0,1,1-12h3q0.495-6,1-12h3a38.533,38.533,0,0,1,1-9h3q0.495-6,1-12c2.08-.37,1.92-0.24,3-1,1.14-1.69,1.07-4.9,1-8h4v-12h4v-8h1v-1h3q0.495-6,1-12h3c0.27-9.24,4.55-7.88,5-17h4c-0.04-3.66-.58-8.86,1-11,1-.33,2-0.67,3-1v-8c1.33-.33,2.67-0.67,4-1,0.95-1.48.62-6.95,1-8h3v-7h1v-1h3c-0.06-2.9-.05-5.47,1-7,1.02-2.04,2.36-2.74,4-4v-6h4v-8c2.08-.37,1.92-0.24,3-1,1-1.56-.12-4.82,1-7,1.33-.67,2.67-1.33,4-2v-7c0.59-1.58,3.39-2.01,4-3,0.33-2.67.67-5.33,1-8,1-.33,2-0.67,3-1,0.33-2.67.67-5.33,1-8,1.33-.33,2.67-0.67,4-1v-8h4v-8c1.33-.33,2.67-0.67,4-1,1.44-2.31.34-10.11,1-12h3v-11h1v-1h3v-12h1v-1h3c-0.11-14.96,4.83-18.1,5-33h4v-16h1v-1h3v-16c5.6-1.68,4.41-8.93,4-16h1v-1h3v-12h1v-1h3a56.454,56.454,0,0,1,1-12h3q0.495-6,1-12h1v-1h3v-8h4v-8h4c0.33-2.67.67-5.33,1-8h3v-4h1v-1h3c0.37-2.08.24-1.92,1-3,3.24-2.87,3.97-3.62,5-9h3c0.37-2.08.24-1.92,1-3v-1h3v-4c2.89-1,7.67-1.06,12-1,0.67,1.67,1.33,3.33,2,5h3ZM402,1561h45a25.074,25.074,0,0,1,1,8h4v4h4v4h4v3c3.409,1.5,4.438,1.27,5,6h4v4h4v4h7a2.909,2.909,0,0,0,1,1v3h4v4h4c1.855,6.23,6.715,7.94,13,10v3h4v4h4c0.372,2.08.242,1.92,1,3,3.314,2.61,7.967,4.36,12,6v3c2.076,0.37,1.924.24,3,1,2.922,3.04,4.318,3.36,9,5v3h4c1.092,3.76,1.787,3.55,5,5v3h7v1h1v3c2.076,0.37,1.924.24,3,1h1v3c3.382,0.14,5.156.49,7,2h1v3h4v1h1v3h4v4h7v1h1v3h4v4a33.779,33.779,0,0,1,8,1v3c6.309,1.09,2.281,1.58,5,4,1.365,1.22,6.39,1.39,8,2v3h4v4h7v1h1v3h4v1h1v3c9.152,0.66,11.569,6.79,20,10v3h5v4c7.065,0.37,5.814,3.11,12,4v4c2.72-.01,4.6.04,6,1,2.975,1.18,6.131,3.48,7,7,2.666,0.33,5.334.67,8,1v4h4v4h8v1h1v3h7v1h1v3h4v4c8.084,0.04,10.473,3.5,17,6v3h6c1.6,3.21,1.343,3.57,6,4v4h8v1h1v3h7v1h1v3a33.779,33.779,0,0,1,8,1v3q6,0.495,12,1c0.372,2.08.242,1.92,1,3,3.151,2.07,12.069,1.13,17,1,2.639-6.41,15.447-3.93,24-4,19.463-.15,42-1,63-1,17.934,0,30.522-.88,45-4h87c11.24-.01,13.43-2.24,21-4h96c14.88-.01,19.36-4,35-4,31.23,0,74.61,3.55,99-4h113c1.13-.47,2.54-3.5,4-4h113c1.13-.47,2.54-3.5,4-4q35.49-.495,71-1c36.12,0,61.35-4,98-4h61c20.37-7.76,58-4,85-4h32c16.23-8.25,71.05-4,96-4h19c1.17-.54,2.13-3.42,4-4h114c0.33-1,.67-2,1-3,7.26-3.92,25.48-.98,35-1v4h4c0.37,2.08.24,1.92,1,3,1.52,0.98,6.27,1.42,8,2v3c2.08,0.37,1.92.24,3,1,0.8,1.18.77,1.68,1,4h3v2c1.24,1.84,1.09,5.7,1,9h-8v5c-5.21,1.18-3.65,3.8-9,5-0.37,2.08-.24,1.92-1,3v1h-3v4h-4v4h-4v8h-4c-0.33,2.67-.67,5.33-1,8h-3c-0.55,8.03-4.25,9.1-5,17h-4v8h-1v1h-3v12h-4c0.12,11.18-2.98,15.09-5,25h-3q-0.495,6-1,12h-3q-0.495,6-1,12c-1.33.33-2.67,0.67-4,1v8c-1.33.33-2.67,0.67-4,1v10c-2,4.37-3.73.69-4,10h-4v8h-1v1h-3a33.793,33.793,0,0,1-1,8h-3c-0.33,2.67-.67,5.33-1,8h-4v4h-1v1h-3v7h-1v1h-3c-0.37,2.08-.24,1.92-1,3v1h-3v4h-4v4h-4v3c-2.09,1.12-1.83,1.43-5,2v4h-4v4h-4v3h-8v4c-5.92,2.14-10.34,3.66-17,6v3q-6.495.495-13,1v3a97.135,97.135,0,0,1-16,0v-3h-59v3c-16.42.66-36.03,0.98-54,1-0.37,2.08-.24,1.92-1,3-4.62,2.94-29.27,1.11-37,1-3,7.01-27.1,4.27-37,4-0.37,2.08-.24,1.92-1,3-4.62,2.94-29.27,1.11-37,1-4.06,6.95-26.29,4.27-37,4-0.37,2.08-.24,1.92-1,3-7.69,4.81-21.42-1.92-31,2-4.47,1.83-4.66,3.92-13,4h-22c-0.33,1-.67,2-1,3-9.37,5.06-26.32-3.21-37,1-0.96.38-3.04,3.62-4,4h-30c-0.9.52-1.48,3.47-3,4h-41c-0.37,2.08-.24,1.92-1,3-4.62,2.94-29.27,1.11-37,1-0.37,2.08-.24,1.92-1,3-7.55,4.64-26.09,1.89-37,2h-8c-0.33,1-.67,2-1,3q-9.495.495-19,1h-25c-1.08.51-1.55,3.46-3,4h-48c-0.33,1-.67,2-1,3q-6,.495-12,1h-34c-0.9.52-1.48,3.47-3,4h-47c-0.9.52-1.48,3.47-3,4h-42c-0.9.52-1.48,3.46-3,4q-13.5.495-27,1h-18c-0.33,1-.67,2-1,3-6.91,3.99-40.29.96-51,1v3c-5.76.37-41.27-.72-45,1-1.17.54-2.13,3.42-4,4H989c-0.9.52-1.477,3.46-3,4H943c-0.694.41-1.007,3.55-2,4H887c-0.992.45-1.306,3.59-2,4q-22.5.495-45,1-0.5,1.5-1,3c-6.561,3.69-36.016.96-46,1v3h-2c-5.16,3.27-34.352,1.11-43,1-3.636,6.59-34.8,4.26-46,4-2.463,6.45-32.017,4.27-42,4-0.372,2.08-.242,1.92-1,3-4.979,3.16-32.66,1.11-41,1v4q-23,.495-46,1v3c-9.763.21-20.92,0.99-32,1H527q-0.5,1.5-1,3c-3.666.33-7.334,0.67-11,1H481c-0.693.41-1.008,3.56-2,4H443v3h-2c-7.416,4.53-37.275-2.83-44,1-0.9.51-1.48,3.47-3,4H356c-0.691.41-1.01,3.56-2,4q-13.5.495-27,1H309c-0.035.02-2.987,3.43-5,4H273c-7.913,3.59-4.413,3.75-16,3-0.927-8.2-3.487-13.34-5-20V2037h1v-1h3v-32c5.385-2.82,4.354-10.82,4-19,0.752-1.07.6-.95,1-3h3a169.176,169.176,0,0,1,1-21h3c-0.151-11.07,3.2-14.89,5-22v-12c0.543-1.51,3.484-2.1,4-3v-10c0.545-1.5,3.492-2.11,4-3,1.585-2.79.213-10.7,1-13h3a117.7,117.7,0,0,1,1-16h3l1-13h3c-0.036-11.91,4.674-13.29,5-25h4v-12c1.333-.33,2.667-0.67,4-1,1.44-2.31.347-10.11,1-12h3c-0.183-14.47,6.379-21.01,9-33h3l1-13h4v-12h4v-12h1v-1h3c0.038-14,7.868-19.07,9-33h3q1-6,2-12h3v-8h1v-1h3a56.259,56.259,0,0,1,1-12h3v-8h1v-1h3a56.259,56.259,0,0,1,1-12h3a38.8,38.8,0,0,1,1-9h3q0.5-6,1-12h4v-12h4v-9h4v-12c2.076-.37,1.924-0.24,3-1,1.449-2.32,1.155-9.4,2-12h3a56.259,56.259,0,0,1,1-12h3a34.156,34.156,0,0,1,2-13h3v-8Z"/>
</svg>
