<svg xmlns="http://www.w3.org/2000/svg" xmlns:xlink="http://www.w3.org/1999/xlink" width="600" height="600" viewBox="0 0 200 200">
  <defs>
    <style>
      .cls-1 {
        fill: #2470ab;
        stroke-width: 1px;
        stroke: url(#linear-gradient);
      }

      .cls-2 {
        fill: #05365c;
        fill-rule: evenodd;
      }
    </style>
    <linearGradient id="linear-gradient" x1="100" y1="200" x2="100" y2="-3" gradientUnits="userSpaceOnUse">
      <stop offset="0"/>
      <stop offset="1" stop-color="#fff"/>
    </linearGradient>
  </defs>
  <rect class="cls-1" x="-4" y="-3" width="208" height="203"/>
  <path id="Color_Fill_1" data-name="Color Fill 1" class="cls-2" d="M85.811,85.532l5.13,0.579,4.048,2.172,1.268,0.139L97.2,89.106l7.825,3.508c-0.332.311,0.106,0.055-.455,0.257-1.065.51-11.052-.794-14.181-1.14l-30.082,15.5-0.871-.06-0.081-.453c-1.539-.862-2.777-8.322-1.584-8.9l-0.141-.79,6.524-2.418,0.6-.667,2.205-.151,11.067-5.225Zm-48.6,2.9,25.35,2.492,0.08,0.353-11.7,4.4,4.3,33.3-1.032-.03-14.1-8.746-3.131-1.264q-0.038-1.945-.074-3.826c2.2-1.219.852-5.88,0.8-8.011C37.523,100.28,37.361,94.085,37.213,88.43ZM146.1,109.076c-3.283-.7-8.538-3.363-11.462-4.721l-1.978-1.175L86.047,99.119l-0.289-.75,3-1.15,4.708-2.934,0.676,0.066,0.674,0.066-0.159-.34,42.55,4.182C140.7,100.876,143.471,105.639,146.1,109.076Zm25.467,27.767-8.659-10.871-16.41-7.7-3.183-1.826-1.3-.079-16.072-8.1c-2.953-1.437-6.427-2.665-8.939-4.351l14.717,1.22c0.085,0.123.169,0.245,0.255,0.368,3.351,0.712,7.476,3.327,10.413,4.73l23.963,11.193c2.305,1.1,9.258,4.417,9.168,5.959q0.6,0.687,1.2,1.384l-1.473,1.779C174.5,132.123,174.216,136.259,171.567,136.843ZM91.758,104.5c5.564,0.384,12.034.8,16.292,2.03l0.208,0.4,4.635,1.12,0.222,0.4,3.007,0.609,2.087,1.328,1.383,0.1,3.053,1.806,0.688,0.046q0.254,0.42.509,0.844l2.589,0.985,0.53,0.86,1.65,0.519,0.546,0.873,0.691,0.041,0.556,0.883,0.692,0.039,0.85,1.342,0.7,0.038,0.87,1.364,0.7,0.036c1.415,1.24,5.576,6.41,5.989,8.221l-0.725-.026,1.655,2.577-0.736-.022q0.5,0.788,1.013,1.587l-0.744-.02q0.307,1.065.62,2.151l-0.756-.017q0.312,1.1.629,2.217l-1.191.543,0.7,1.15-2.528,2.312q-0.5,1.2-1,2.421l-1.639-.006q-0.059.621-.118,1.25l-1.665,0q0.175,0.318.352,0.636l-4.4,1.3,0.345,0.656-4.9.69,0.334,0.673-11.5.776-0.3-.695-10.708-.633q-0.132-.349-0.262-0.7l-1.933.008q-0.128-.348-0.254-0.7l-2.918.008-0.242-.695-1.957,0-1.443-1.38-4.161-.693-3.788-2.724c-4.629-2.628-9.89-5.069-13.056-8.534l-1.807-3.662-0.97-.029c-2.72-3.5-3.587-11.733-2.211-14.078l0.889,0.049,1.064-2.809,0.865,0.052-0.235-.943,2.316-.768-0.244-.916,2.952-1.127,1.246-1.207,1.617,0.115,0.532-.807,1.594,0.116,0.511-.793Zm-62.842,4.475c2.744,1.717,1.895,8.961,1.727,12.553l10.821,5.8,1.136,1.276,2.146,0.062,6.8,4.624,18.687,10.416c5.5,3.247,10.436,7.083,17.2,9.508l0.218,0.77L86.595,154c-1.971,1.621-18.988,1.2-24.419,1.231L47,145.143H44.649L21.223,129.957c-5.4-3.335-12.971-5.445-12.65-11.131,2.19-.82,3.06-2.378,5.019-3.254C18.517,113.371,25.631,111.514,28.916,108.973Zm162.155,59.275-25.952,1.422-0.506-.793,0.857-.046,3.122-9.329,1.4-1.469-26.84-38.267,0.666,0.036c4.655,3.052,12.456,4.506,16.107,8.806,2.66,1.412,5.794,6.693,7.737,9.219ZM154,141.558l9.373,13.858-13.813,26.958c-2.731,5.65-2.639,13.31-13.594,15.115-1.871-1.32-3.96-1.695-5.911-2.814l-2.023-2.045-2.266.222-14.192-9.516-4.126-1.746q-0.336-.992-0.667-1.972l23.88-1.626c0.777-4.22,4.374-7.056,6.332-10.215l10.452-18.168,0.814-.008C149.65,147.36,150.831,142.305,154,141.558ZM37.533,147.472l2.438-.01L42.5,149.82l12.74,7.222,2.729,2.507,72.978-1.9c0.5,2.949-.972,2.328-2.813,3.95q-0.1.8-.208,1.61-1.668,1.693-3.394,3.449-1.069,2.184-2.182,4.454L38.08,175.575C37.88,165.3,37.7,155.97,37.533,147.472Z"/>
</svg>
